<svg width="1153" height="433" viewBox="0 0 1153 433" fill="none" xmlns="http://www.w3.org/2000/svg">
<rect width="1153" height="433" rx="54" fill="white"/>
<mask id="mask0_13_1209" style="mask-type:alpha" maskUnits="userSpaceOnUse" x="25" y="34" width="1103" height="365">
<rect x="25" y="34" width="1103" height="365" rx="24" fill="white"/>
</mask>
<g mask="url(#mask0_13_1209)">
<path d="M460.44 316.429L480.508 318.288L466.337 368.329C460.44 367.399 452.166 362.497 452.166 354.382L460.44 316.429Z" fill="#1A182C"/>
<path d="M522.492 319.387L543.969 314.823L552.33 364.948C546.609 366.638 535.255 362.412 531.47 355.227L522.492 319.387Z" fill="#1A182C"/>
<path d="M551.538 354.804C553.563 356.326 555.499 362.919 553.915 367.991C553.915 367.991 556.555 373.739 552.859 375.514C549.514 377.12 539.304 375.176 532.615 375.345C525.749 375.514 518.004 377.711 511.666 376.444C503.217 374.753 497.671 370.611 495.735 367.484C494.943 366.216 497.495 360.214 501.544 359.538C505.681 358.862 512.37 360.383 516.947 358.693C521.612 357.002 524.165 352.015 529.358 349.479C533.231 347.62 537.543 358.27 541.24 359.2C544.849 360.045 550.218 353.79 551.45 354.72L551.538 354.804Z" fill="#1A182C"/>
<path d="M471.882 360.045C472.762 362.327 471.266 369.597 467.129 373.147C467.129 373.147 466.249 379.402 462.112 378.979C458.416 378.641 450.846 371.795 444.949 368.498C439.052 365.117 431.218 363.088 426.553 358.777C420.304 353.029 417.927 346.69 418.015 343.055C418.015 341.534 423.473 337.814 427.345 339.336C431.306 340.857 436.499 345.929 440.9 346.521C445.301 347.112 448.117 342.379 453.927 342.886C458.239 343.224 458.24 356.495 461.232 359.284C463.785 361.736 471.354 358.608 471.882 360.045Z" fill="#1A182C"/>
<path d="M552.947 369.09C552.683 369.85 552.154 370.527 551.274 370.949C548.106 372.471 538.424 370.611 532.086 370.78C525.837 370.949 519.324 373.316 513.339 372.133C505.329 370.527 500.136 366.638 498.288 363.68" fill="#1A182C"/>
<path d="M552.947 369.09C552.683 369.85 552.154 370.527 551.274 370.949C548.106 372.471 538.424 370.611 532.086 370.78C525.837 370.949 519.324 373.316 513.339 372.133C505.329 370.527 500.136 366.638 498.288 363.68" stroke="#6963A3" stroke-linejoin="round"/>
<path d="M465.721 373.654C465.105 374.161 464.313 374.5 463.345 374.415C459.824 374.077 452.606 367.568 447.149 364.525C441.78 361.482 435.003 360.214 430.514 356.157C424.617 350.747 422.328 344.746 422.416 341.28" fill="#1A182C"/>
<path d="M465.721 373.654C465.105 374.161 464.313 374.5 463.345 374.415C459.824 374.077 452.606 367.568 447.149 364.525C441.78 361.482 435.003 360.214 430.514 356.157C424.617 350.747 422.328 344.746 422.416 341.28" stroke="#6963A3" stroke-linejoin="round"/>
<path d="M504.097 267.656C504.361 270.953 504.713 273.996 505.153 276.701C508.146 296.649 522.228 334.94 522.228 334.94C522.845 340.266 550.13 338.321 550.042 332.996C550.042 332.996 543.001 294.874 543.705 275.686C544.321 259.795 553.475 218.714 556.643 190.905C558.228 177.042 555.235 163.94 555.235 163.94L494.591 171.041C494.591 171.041 460.528 241.114 453.487 268.079C448.029 289.126 452.43 333.165 452.43 333.165C450.67 337.983 477.427 341.618 480.596 336.546C480.596 336.546 487.99 297.917 496.439 280.335C497.76 277.461 500.576 273.066 504.097 267.656Z" fill="#1A182C"/>
<path d="M504.713 266.642C520.644 242.636 550.834 205.782 554.091 193.61L504.713 266.642Z" fill="#1A182C"/>
<path d="M504.713 266.642C520.644 242.636 550.834 205.782 554.091 193.61" stroke="#6963A3" stroke-linejoin="round"/>
<path d="M487.725 271.037C494.239 274.249 500.224 271.037 500.224 271.037C500.224 271.037 490.102 266.811 488.518 262.5" fill="#1A182C"/>
<path d="M487.725 271.037C494.239 274.249 500.224 271.037 500.224 271.037C500.224 271.037 490.102 266.811 488.518 262.5" stroke="#6963A3" stroke-linejoin="round"/>
<path d="M530.854 279.067C538.16 279.574 542.384 274.418 542.384 274.418C542.384 274.418 538.952 274.418 535.343 273.742" fill="#1A182C"/>
<path d="M530.854 279.067C538.16 279.574 542.384 274.418 542.384 274.418C542.384 274.418 538.952 274.418 535.343 273.742" stroke="#6963A3" stroke-linejoin="round"/>
<path d="M486.229 128.607L498.376 150.331L439.844 205.697C440.02 211.698 437.291 215.418 429.634 216.432C421.536 217.531 416.695 206.373 420.744 201.132C423.649 197.329 429.106 196.652 432.01 198.259L486.141 128.523L486.229 128.607Z" fill="#1A182C"/>
<path d="M487.725 183.889C487.373 179.916 488.254 170.533 487.725 163.94C486.669 149.57 475.139 111.786 481.212 97.9239C482.268 95.388 490.102 85.4137 508.322 81.9481C524.517 78.8205 539.656 79.0741 544.761 88.8793C553.651 105.616 566.765 162.081 561.396 182.367C557.964 195.554 488.518 193.525 487.725 183.973V183.889Z" fill="#1A182C"/>
<path d="M530.414 80.0885L521.084 89.2175L527.774 92.4296L511.49 108.152L496.087 98.7692L501.368 91.8378L491.07 86.7662C503.305 76.5383 516.771 74.087 530.414 80.0885Z" fill="#1A182C"/>
<path d="M629.082 62.7602C630.842 57.773 625.913 54.6455 622.921 54.0538C617.552 52.9549 610.246 69.0153 612.095 70.7058L583.049 96.3178C583.049 96.3178 549.514 86.8507 540.8 84.4839C537.015 83.4695 536.047 91.6688 537.632 98.3465C538.864 103.587 543.001 111.533 545.025 112.04C557.876 114.998 569.934 116.013 577.592 116.605C582.697 117.027 589.034 116.605 592.643 112.885C599.42 105.954 614.383 82.1171 618.168 74.8477C618.872 73.4952 626.882 69.1843 629.17 62.6757L629.082 62.7602Z" fill="#1A182C"/>
<path d="M502.865 83.8922C502.16 80.5956 502.248 76.7919 502.336 76.7919C502.424 76.7919 513.779 71.2975 513.779 71.2975C513.779 74.1715 516.243 82.3707 516.243 82.5398C518.004 92.0914 511.666 106.546 511.666 106.546C511.666 106.546 504.185 92.0069 502.865 83.8077V83.8922Z" fill="#1A182C"/>
<path d="M514.483 75.7775C514.131 74.1715 513.779 72.65 513.779 71.2975C513.779 71.2975 502.512 76.7073 502.336 76.7919C502.336 76.8764 502.248 78.1443 502.336 80.0039C504.801 83.4696 515.539 79.3277 514.483 75.7775Z" fill="#1A182C"/>
<path d="M497.848 57.6886C502.248 52.7859 511.842 53.124 515.891 58.2802C518.268 61.4078 519.412 69.6915 514.395 72.9036C509.906 75.7775 498.64 72.7345 497.319 70.5368C495.999 68.3391 493.711 62.3376 497.848 57.6886Z" fill="#1A182C"/>
<path d="M509.29 64.2817C508.146 64.1126 505.769 64.0281 503.569 64.1972C503.481 64.1972 503.217 63.3519 503.217 62.5066C503.217 61.6613 503.217 60.816 503.217 60.816C503.217 60.816 502.424 61.9149 502.248 62.5911C502.072 63.3519 502.248 64.1972 502.072 64.2817C500.136 64.3662 498.288 64.6198 497.671 64.7043C497.495 64.7043 497.407 64.8734 497.407 65.0424C497.407 66.3949 497.671 72.3118 498.2 73.7488C499.08 76.2001 501.896 78.9896 507.617 77.3835C511.05 76.4537 512.282 74.9322 512.987 73.5798C513.515 72.65 513.251 70.4522 513.251 70.4522C513.251 70.4522 516.771 69.1843 515.891 66.8175C514.835 63.8591 512.811 67.0711 511.754 66.6485C510.698 66.2258 510.522 64.4507 509.378 64.2817H509.29Z" fill="#1A182C"/>
<path d="M500.664 73.1571C501.896 73.5802 503.129 73.4956 504.097 73.1571H500.664Z" fill="#1A182C"/>
<path d="M500.664 73.1571C501.896 73.5802 503.129 73.4956 504.097 73.1571" stroke="#1A182C" stroke-linejoin="round"/>
<path d="M502.072 68.339L501.632 70.3677L502.512 70.8748" fill="#1A182C"/>
<path d="M502.072 68.339L501.632 70.3677L502.512 70.8748" stroke="#1A182C" stroke-linejoin="round"/>
<path d="M505.505 69.0999C505.894 69.0999 506.209 68.7215 506.209 68.2546C506.209 67.7878 505.894 67.4094 505.505 67.4094C505.116 67.4094 504.801 67.7878 504.801 68.2546C504.801 68.7215 505.116 69.0999 505.505 69.0999Z" fill="#1A182C"/>
<path d="M499.96 69.2689C500.3 69.2689 500.576 68.9283 500.576 68.5081C500.576 68.088 500.3 67.7474 499.96 67.7474C499.62 67.7474 499.344 68.088 499.344 68.5081C499.344 68.9283 499.62 69.2689 499.96 69.2689Z" fill="#1A182C"/>
<path d="M286.693 311.357L299.544 326.657L273.05 340.604L264.777 328.347L286.693 311.272V311.357Z" fill="#1A182C"/>
<path d="M345.577 325.473L365.821 325.896L362.564 358.355L347.777 361.398L345.577 325.558V325.473Z" fill="#1A182C"/>
<path d="M296.639 224.462C287.837 213.981 286.165 203.415 284.933 194.37C282.732 178.648 299.544 164.448 299.544 164.448L362.388 177.972L353.498 204.176C353.498 204.176 384.129 260.302 380.168 272.981C373.831 293.522 368.285 335.279 368.285 335.279C366.613 342.971 341.88 341.534 341 334.011C341 334.011 341 318.542 341.352 302.228C323.132 315.922 299.28 331.475 299.28 331.475C293.734 334.856 275.691 315.584 281.5 310.427C281.5 310.427 306.409 282.702 320.58 273.573C327.181 269.347 296.639 224.462 296.639 224.462Z" fill="#1A182C"/>
<path d="M343.64 326.234C348.833 329.023 357.723 330.968 366.701 327.333L343.64 326.234Z" fill="#1A182C"/>
<path d="M343.64 326.234C348.833 329.023 357.723 330.968 366.701 327.333" stroke="#6963A3" stroke-linejoin="bevel"/>
<path d="M289.422 306.285C290.918 311.864 295.583 319.303 304.473 323.106L289.422 306.285Z" fill="#1A182C"/>
<path d="M289.422 306.285C290.918 311.864 295.583 319.303 304.473 323.106" stroke="#6963A3" stroke-linejoin="bevel"/>
<path d="M341.528 300.115C341.792 287.943 341.968 277.461 342.584 270.277C343.2 262.669 311.338 240.185 299.896 226.576" fill="#1A182C"/>
<path d="M341.528 300.115C341.792 287.943 341.968 277.461 342.584 270.277C343.2 262.669 311.338 240.185 299.896 226.576" stroke="#6963A3" stroke-linejoin="round"/>
<path d="M354.114 267.91C349.45 266.05 345.753 267.318 342.584 270.277C344.433 265.712 347.601 263.176 352.266 263.261" fill="#1A182C"/>
<path d="M354.114 267.91C349.45 266.05 345.753 267.318 342.584 270.277C344.433 265.712 347.601 263.176 352.266 263.261" stroke="#6963A3" stroke-linejoin="round"/>
<path d="M280.444 341.195C279.475 343.055 277.627 345.591 276.483 349.225C274.37 356.157 274.546 365.793 272.61 368.498C271.554 370.019 266.185 372.809 264.072 371.203C262.4 369.935 257.119 355.734 255.535 350.493C253.246 342.97 251.31 334.01 250.253 329.277C249.989 328.178 250.518 326.995 251.662 326.657C256.151 325.22 266.449 321.754 269.265 322.768C272.17 323.783 267.153 329.869 268.913 332.743C270.762 335.786 282.644 336.715 280.356 341.28L280.444 341.195Z" fill="#1A182C"/>
<path d="M366.965 350.155C368.549 351.592 370.486 354.128 373.742 356.157C379.992 360.214 389.586 363.004 391.698 365.54C392.842 366.892 394.075 372.724 391.786 374.246C390.114 375.345 374.095 374.753 368.373 374.584C360.188 374.415 350.946 374.584 346.017 374.077C344.785 373.908 343.816 373.147 343.816 371.964C343.816 367.399 343.376 357.002 345.313 354.635C347.161 352.353 351.738 358.693 355.083 358.017C358.691 357.256 363.18 346.605 367.053 350.071L366.965 350.155Z" fill="#1A182C"/>
<path d="M278.771 345.168C278.067 344.83 275.427 343.731 274.106 342.379L278.771 345.168Z" fill="#1A182C"/>
<path d="M278.771 345.168C278.067 344.83 275.427 343.731 274.106 342.379" stroke="#6963A3" stroke-linejoin="round"/>
<path d="M370.398 352.945C369.87 353.452 368.021 355.565 366.173 356.41L370.398 352.945Z" fill="#1A182C"/>
<path d="M370.398 352.945C369.87 353.452 368.021 355.565 366.173 356.41" stroke="#6963A3" stroke-linejoin="round"/>
<path d="M277.451 348.38C276.747 348.042 274.106 346.943 272.786 345.591L277.451 348.38Z" fill="#1A182C"/>
<path d="M277.451 348.38C276.747 348.042 274.106 346.943 272.786 345.591" stroke="#6963A3" stroke-linejoin="round"/>
<path d="M373.126 355.058C372.598 355.565 370.75 357.678 368.901 358.524L373.126 355.058Z" fill="#1A182C"/>
<path d="M373.126 355.058C372.598 355.565 370.75 357.678 368.901 358.524" stroke="#6963A3" stroke-linejoin="round"/>
<path d="M276.043 351.677C275.339 351.339 272.698 350.24 271.378 348.887L276.043 351.677Z" fill="#1A182C"/>
<path d="M276.043 351.677C275.339 351.339 272.698 350.24 271.378 348.887" stroke="#6963A3" stroke-linejoin="round"/>
<path d="M376.031 357.425C375.503 357.932 373.654 360.045 371.806 360.89L376.031 357.425Z" fill="#1A182C"/>
<path d="M376.031 357.425C375.503 357.932 373.654 360.045 371.806 360.89" stroke="#6963A3" stroke-linejoin="round"/>
<path d="M268.913 369.597C267.329 368.413 264.16 362.074 262.752 357.932C260.464 351.17 256.327 337.307 254.918 329.023C254.742 327.925 255.271 326.826 256.327 326.488" fill="#1A182C"/>
<path d="M268.913 369.597C267.329 368.413 264.16 362.074 262.752 357.932C260.464 351.17 256.327 337.307 254.918 329.023C254.742 327.925 255.271 326.826 256.327 326.488" stroke="#6963A3" stroke-linejoin="round"/>
<path d="M391.61 369.343C389.938 370.442 381.488 370.865 376.031 370.696C368.637 370.442 355.787 371.034 347.073 369.851C345.929 369.681 344.961 368.921 344.961 367.737" fill="#1A182C"/>
<path d="M391.61 369.343C389.938 370.442 381.488 370.865 376.031 370.696C368.637 370.442 355.787 371.034 347.073 369.851C345.929 369.681 344.961 368.921 344.961 367.737" stroke="#6963A3" stroke-linejoin="round"/>
<path d="M224.816 187.439C221.032 180.677 231.506 169.942 233.794 170.195C235.291 170.364 244.62 171.21 246.029 175.69C247.349 179.747 241.628 189.89 241.1 190.482C239.163 192.68 230.097 196.906 224.816 187.354V187.439Z" fill="#1A182C"/>
<path d="M430.866 206.796C432.626 199.357 419.6 191.665 417.487 192.426C416.079 192.933 407.365 196.145 407.189 200.879C407.013 205.105 415.287 213.474 415.991 213.896C418.455 215.587 428.401 217.362 430.866 206.796Z" fill="#1A182C"/>
<path d="M266.185 104.855C278.243 100.206 304.648 83.1314 330.438 81.0182C345.753 79.7503 357.987 84.4839 365.381 87.1888C384.129 94.2046 380.344 142.639 386.065 149.486C398.915 164.87 413.791 178.225 420.304 187.524C424.793 193.863 413.086 203.584 405.605 204.429C398.299 205.274 363.18 178.056 363.18 178.056C363.18 178.056 362.036 187.016 361.156 190.736C356.667 209.416 294.35 193.525 284.316 175.605C281.588 170.702 290.302 148.218 301.128 127.001C291.798 128.354 282.996 129.199 282.996 129.199C282.996 129.199 260.112 165.546 249.461 175.774C244.18 180.93 227.809 175.774 228.161 168.505C228.689 158.53 252.718 115.928 252.718 115.928C252.718 115.928 259.847 107.222 266.097 104.855H266.185Z" fill="#1A182C"/>
<path d="M353.762 80.7647C362.388 81.9481 367.317 86.3436 366.525 90.4009C365.821 94.4582 359.131 96.7405 351.738 95.4726C344.344 94.2047 338.887 89.8937 339.68 85.8364C340.384 81.779 346.281 79.6658 353.674 80.7647H353.762Z" fill="#1A182C"/>
<path d="M362.828 115.844L338.711 113.562L330.35 164.532L358.603 167.49C360.628 152.275 362.124 135.454 362.74 115.844H362.828Z" fill="#1A182C"/>
<path d="M367.405 115.252C367.757 135.454 364.589 158.023 363.444 175.69L367.405 115.252Z" fill="#1A182C"/>
<path d="M367.405 115.252C367.757 135.454 364.589 158.023 363.444 175.69" stroke="#6963A3" stroke-linejoin="bevel"/>
<path d="M301.216 127.002C301.216 127.002 323.924 127.34 327.621 115.168L301.216 127.002Z" fill="#1A182C"/>
<path d="M301.216 127.002C301.216 127.002 323.924 127.34 327.621 115.168" stroke="#6963A3" stroke-linejoin="bevel"/>
<path d="M277.715 122.606C278.507 125.057 280.004 127.762 283.084 129.284C283.084 129.284 274.282 130.045 272.874 123.029" fill="#1A182C"/>
<path d="M277.715 122.606C278.507 125.057 280.004 127.762 283.084 129.284C283.084 129.284 274.282 130.045 272.874 123.029" stroke="#6963A3" stroke-linejoin="bevel"/>
<path d="M360.628 80.4266C360.628 80.4266 360.804 84.2303 360.188 87.5269C359.22 92.5141 345.489 89.8937 346.897 85.8364C348.129 82.2862 349.098 78.2289 349.098 75.1013C349.098 75.1013 360.54 80.4266 360.628 80.4266Z" fill="#1A182C"/>
<path d="M348.833 78.567C349.186 76.9609 349.186 76.4538 349.098 75.1013C349.098 75.1013 360.452 80.4266 360.628 80.4266C360.628 80.4266 360.804 80.6802 360.628 82.4553C359.66 83.5541 356.403 83.6386 353.498 82.6243C350.682 81.61 348.481 79.6658 348.745 78.4824L348.833 78.567Z" fill="#1A182C"/>
<path d="M366.085 60.9852C362.124 56.4207 349.802 51.349 343.112 63.6055C341.44 66.7331 343.288 76.2002 346.193 78.3979C355.699 85.4137 376.207 72.7346 366.085 60.9852Z" fill="#1A182C"/>
<path d="M353.498 68.0009C355.875 67.6628 363.532 68.17 365.117 68.2545C365.293 68.2545 365.381 68.4236 365.381 68.5081C365.381 69.8606 365.293 75.7775 364.677 77.2145C363.796 79.6658 361.068 82.5397 355.347 81.0182C351.914 80.0884 350.682 78.6515 349.89 77.299C349.362 76.3692 349.538 74.1715 349.538 74.1715C349.538 74.1715 346.105 72.9881 346.809 70.5368C347.865 67.1557 350.858 70.5368 350.858 70.5368C350.858 70.5368 352.178 68.2545 353.322 68.0009H353.498Z" fill="#1A182C"/>
<path d="M362.212 76.7919C360.98 77.299 359.748 77.2145 358.779 76.7919H362.212Z" fill="#1A182C"/>
<path d="M362.212 76.7919C360.98 77.299 359.748 77.2145 358.779 76.7919" stroke="#1A182C" stroke-linejoin="round"/>
<path d="M360.716 71.9739L361.244 73.918L360.364 74.4252" fill="#1A182C"/>
<path d="M360.716 71.9739L361.244 73.918L360.364 74.4252" stroke="#1A182C" stroke-linejoin="round"/>
<path d="M357.096 71.746C357.485 71.7415 357.795 71.3593 357.789 70.8925C357.783 70.4257 357.463 70.051 357.074 70.0556C356.685 70.0601 356.375 70.4423 356.381 70.9091C356.387 71.3759 356.707 71.7506 357.096 71.746Z" fill="#1A182C"/>
<path d="M362.642 71.8501C362.982 71.8461 363.253 71.5023 363.248 71.0822C363.243 70.6621 362.963 70.3247 362.622 70.3287C362.282 70.3327 362.011 70.6765 362.016 71.0966C362.021 71.5168 362.301 71.8541 362.642 71.8501Z" fill="#1A182C"/>
<path d="M708.125 349.197C708.227 344.393 691.281 341.746 684.748 342.433C678.214 343.119 674.641 350.766 668.721 353.413C662.698 356.06 652.591 356.158 648.814 358.412C646.16 359.981 643.2 365.569 645.956 366.942C652.285 369.981 660.962 372.824 667.904 372.824C679.133 372.824 685.564 369.785 689.341 369.588C690.158 369.588 689.546 371.451 690.566 371.745C695.058 373.118 704.552 373.216 705.164 371.843C706.287 369.294 707.92 356.942 708.125 349.099V349.197Z" fill="#1A182C"/>
<path d="M854.308 175.772C854.308 175.772 853.287 178.615 852.266 181.654C851.96 182.733 850.53 186.85 850.428 187.536C849.408 193.32 866.864 191.948 866.966 186.85C867.068 182.537 867.68 177.733 869.007 174.4C869.007 174.4 854.307 175.772 854.205 175.772H854.308Z" fill="#1A182C"/>
<path d="M867.783 179.595C868.089 177.733 868.599 175.968 869.212 174.498C869.212 174.498 854.614 175.87 854.41 175.87C854.41 175.87 853.797 177.439 853.083 179.497C854.205 182.635 867.374 182.34 867.783 179.595Z" fill="#1A182C"/>
<path d="M853.287 153.812C855.839 149.989 874.112 146.067 879.216 157.93C885.443 172.145 874.52 176.36 868.293 178.517C867.17 178.909 867.476 175.576 867.476 175.576L854.206 171.164C854.41 169.302 856.451 162.537 853.593 161.459C851.858 160.871 851.756 155.969 853.287 153.812Z" fill="#1A182C"/>
<path d="M880.032 179.988C880.849 182.537 871.253 186.85 870.028 183.615C868.497 179.497 869.722 177.047 872.376 176.262C875.03 175.478 879.216 177.537 880.032 180.086V179.988Z" fill="#1A182C"/>
<path d="M866.455 164.498C865.435 163.714 864.72 164.988 863.393 162.341C863.291 162.047 863.087 161.753 862.883 161.557C862.576 161.361 861.964 161.263 861.658 160.969C861.249 160.577 860.841 160.086 860.535 159.302C860.535 160.086 860.535 160.871 861.453 161.361C861.453 161.361 859.208 161.361 858.187 161.067C856.86 160.577 856.349 159.204 855.635 159.204C854.716 159.204 854.205 160.969 854.205 160.969C853.695 162.439 851.347 168.91 851.245 170.674C851.245 173.713 852.98 177.831 859.82 178.419C864.005 178.713 865.945 177.635 867.272 176.458C868.191 175.674 868.905 173.223 868.905 173.223C868.905 173.223 873.193 173.223 873.397 170.282C873.703 166.165 869.007 168.615 869.007 168.615C869.007 168.615 867.783 165.478 866.455 164.4V164.498Z" fill="#1A182C"/>
<path d="M851.449 172.047C852.266 172.243 853.185 172.243 853.899 172.047H851.449Z" fill="#1A182C"/>
<path d="M851.449 172.047C852.266 172.243 853.185 172.243 853.899 172.047" stroke="#1A182C" stroke-linejoin="round"/>
<path d="M852.878 165.772L851.245 167.537L851.858 168.517" fill="#1A182C"/>
<path d="M852.878 165.772L851.245 167.537L851.858 168.517" stroke="#1A182C" stroke-linejoin="round"/>
<path d="M855.828 164.051C856.009 163.596 855.857 163.117 855.488 162.982C855.119 162.847 854.674 163.107 854.493 163.562C854.312 164.017 854.464 164.496 854.833 164.631C855.201 164.766 855.647 164.507 855.828 164.051Z" fill="#1A182C"/>
<path d="M878.603 156.263C878.603 156.165 878.705 155.871 878.501 155.479C878.195 154.988 877.378 154.204 876.664 153.616C876.051 153.126 875.847 153.518 875.745 153.616C874.214 156.263 869.824 164.204 868.293 166.851C868.089 167.145 868.293 167.635 868.599 167.831L870.743 168.91C871.049 169.106 871.56 168.91 871.764 168.615C873.295 165.968 877.174 158.91 878.603 156.263Z" fill="#1A182C"/>
<path d="M871.709 175.021C874.709 173.915 876.208 170.683 875.056 167.801C873.905 164.92 870.539 163.481 867.539 164.587C864.539 165.693 863.04 168.925 864.192 171.807C865.343 174.688 868.709 176.127 871.709 175.021Z" fill="#1A182C"/>
<path d="M870.764 175.353C873.764 174.247 875.262 171.014 874.111 168.133C872.959 165.252 869.593 163.813 866.593 164.919C863.593 166.025 862.095 169.257 863.246 172.138C864.398 175.02 867.764 176.459 870.764 175.353Z" fill="#1A182C"/>
<path d="M869.813 172.973C871.444 172.372 872.259 170.614 871.633 169.047C871.007 167.48 869.176 166.697 867.545 167.299C865.913 167.9 865.098 169.658 865.724 171.225C866.351 172.792 868.181 173.575 869.813 172.973Z" fill="#1A182C"/>
<path d="M701.081 315.179C701.081 315.179 691.077 329.982 684.441 344.099C683.319 346.452 704.143 350.962 705.981 348.707C710.677 343.119 723.641 326.453 723.641 326.453L701.081 315.179Z" fill="#1A182C"/>
<path d="M803.266 298.415C803.266 298.415 767.333 270.376 745.895 264.004C737.729 261.553 727.52 262.632 721.702 269.396C704.45 289.787 688.831 328.021 688.831 328.021C685.768 332.727 712.82 346.844 716.802 342.236C716.802 342.236 740.893 303.512 742.322 304.591C747.835 308.512 754.062 320.571 760.085 332.041C778.154 366.745 810.208 368.706 816.435 368.706C827.868 368.706 839.914 366.843 846.345 362.432C860.841 352.53 860.739 334.001 860.739 334.001L803.368 298.218L803.266 298.415Z" fill="#1A182C"/>
<path d="M702.714 337.237L737.116 286.16C737.116 286.16 739.464 288.121 743.343 291.258C759.677 304.199 797.039 357.922 817.558 343.805" fill="#1A182C"/>
<path d="M702.714 337.237L737.116 286.16C737.116 286.16 739.464 288.121 743.343 291.258C759.677 304.199 797.039 357.922 817.558 343.805" stroke="#6963A3" stroke-linejoin="bevel"/>
<path d="M737.116 299.297L742.22 304.689L741.097 297.14" fill="#1A182C"/>
<path d="M737.116 299.297L742.22 304.689L741.097 297.14" stroke="#6963A3" stroke-linejoin="bevel"/>
<path d="M732.216 269.2C747.325 269.298 752.225 279.592 753.96 278.023C755.083 276.945 762.229 270.573 760.391 266.063C758.758 261.945 747.529 254.593 739.566 254.593C723.029 254.691 726.193 269.102 732.114 269.2H732.216Z" fill="#1A182C"/>
<path d="M782.135 194.595C783.768 200.183 790.812 206.653 790.812 206.653C790.812 206.653 797.447 209.104 799.591 204.594C806.226 190.771 798.06 172.635 783.564 176.948C775.193 179.399 780.195 188.223 782.135 194.595Z" fill="#1A182C"/>
<path d="M787.035 164.204C786.831 163.42 785.912 162.929 785.095 163.125C781.931 163.91 774.887 165.772 771.722 166.557C768.558 167.341 770.395 167.635 770.6 168.419L777.745 194.203C777.95 194.987 778.868 195.477 779.685 195.281L793.058 191.85C793.875 191.654 794.385 190.772 794.181 189.987C792.752 185.085 788.362 169.204 787.035 164.204Z" fill="#1A182C"/>
<path d="M785.83 191.252C788.934 190.454 790.764 187.347 789.918 184.314C789.071 181.28 785.869 179.469 782.765 180.268C779.661 181.067 777.83 184.173 778.677 187.206C779.523 190.24 782.725 192.051 785.83 191.252Z" fill="#1A182C"/>
<path d="M785.708 166.067C785.504 165.478 784.891 165.086 784.177 165.282C781.727 165.871 776.112 167.341 773.662 168.027C773.05 168.223 772.641 168.812 772.845 169.4C773.356 171.263 774.785 176.164 775.295 178.027C775.499 178.615 776.112 179.007 776.725 178.811L787.239 176.066C787.851 175.87 788.26 175.282 788.056 174.596C787.545 172.733 786.116 167.831 785.606 165.969L785.708 166.067Z" fill="#1A182C"/>
<path d="M781.446 167.502L774.446 169.304L774.657 170.061L781.658 168.26L781.446 167.502Z" fill="#1A182C"/>
<path d="M778.996 169.455L774.756 170.546L774.809 170.736L779.049 169.645L778.996 169.455Z" fill="#1A182C"/>
<path d="M777.09 175.48L776.301 175.683L776.777 177.388L777.566 177.185L777.09 175.48Z" fill="#1A182C"/>
<path d="M777.963 174.385L777.174 174.588L777.914 177.239L778.703 177.036L777.963 174.385Z" fill="#1A182C"/>
<path d="M778.836 173.19L778.048 173.393L779.025 176.897L779.814 176.694L778.836 173.19Z" fill="#1A182C"/>
<path d="M780.148 173.275L779.359 173.478L780.205 176.508L780.994 176.305L780.148 173.275Z" fill="#1A182C"/>
<path d="M781.486 173.454L780.698 173.657L781.437 176.308L782.226 176.105L781.486 173.454Z" fill="#1A182C"/>
<path d="M782.696 173.538L781.907 173.741L782.541 176.014L783.33 175.811L782.696 173.538Z" fill="#1A182C"/>
<path d="M784.034 173.717L783.245 173.92L783.747 175.719L784.536 175.516L784.034 173.717Z" fill="#1A182C"/>
<path d="M784.56 170.56L783.771 170.763L785.066 175.403L785.855 175.2L784.56 170.56Z" fill="#1A182C"/>
<path d="M785.407 169.271L784.618 169.474L786.177 175.061L786.966 174.858L785.407 169.271Z" fill="#1A182C"/>
<path d="M786.729 185.379L783.462 188.222L782.441 184.595L786.729 185.477V185.379Z" fill="#1A182C"/>
<path d="M793.16 189.007C791.731 187.83 791.118 186.654 789.179 186.556C787.035 186.458 786.422 187.536 787.545 189.497C790.608 194.791 796.733 197.046 798.06 195.281C800.714 192.046 796.222 191.556 793.058 189.007H793.16Z" fill="#1A182C"/>
<path d="M829.399 236.162L809.085 269.2C809.085 269.2 813.474 274.592 804.491 260.181C791.731 239.887 788.056 209.3 788.056 207.83C788.056 200.281 799.795 194.791 805.001 200.477C811.637 207.732 829.501 236.26 829.501 236.26L829.399 236.162Z" fill="#1A182C"/>
<path d="M797.345 274.004C800.714 274.494 823.887 226.456 835.524 204.398C841.139 193.811 850.224 184.889 850.428 184.301C851.143 182.634 869.416 182.438 870.233 189.889C870.641 193.516 872.07 206.359 871.764 221.555C871.151 245.867 865.945 331.551 864.21 342.138C861.147 360.471 781.726 321.943 787.239 311.551C788.056 309.983 793.67 303.316 793.67 303.316C793.67 303.316 787.545 303.61 777.745 298.415C768.66 293.611 756.206 283.415 753.756 281.651C748.754 277.925 756.308 260.475 762.535 263.024C768.966 265.573 785.095 272.435 797.243 274.102L797.345 274.004Z" fill="#1A182C"/>
<path d="M797.345 303.218C815.006 301.944 828.889 300.473 842.67 273.906L797.345 303.218Z" fill="#1A182C"/>
<path d="M797.345 303.218C815.006 301.944 828.889 300.473 842.67 273.906" stroke="#6963A3" stroke-linejoin="round"/>
<path d="M916.476 93.5201V93.324C916.476 93.324 916.374 93.324 916.272 93.324L899.632 96.8534C899.53 96.8534 899.428 96.9514 899.428 97.1474V114.794C898.612 114.206 897.489 113.912 896.366 113.912C893.507 113.912 891.16 116.068 891.16 118.617C891.16 121.166 893.507 123.323 896.366 123.323C899.224 123.323 901.572 121.166 901.572 118.617V100.971L914.537 98.2258V111.657C913.72 111.068 912.597 110.774 911.474 110.774C908.616 110.774 906.268 112.833 906.268 115.48C906.268 118.127 908.616 120.186 911.474 120.186C914.332 120.186 916.476 118.225 916.68 115.676V93.8142L916.476 93.5201Z" fill="#1A182C"/>
<path d="M827.562 107.147V106.951C827.562 106.951 827.46 106.951 827.358 106.951L810.718 110.48C810.616 110.48 810.514 110.578 810.514 110.774V128.421C809.697 127.833 808.574 127.538 807.451 127.538C804.593 127.538 802.245 129.695 802.245 132.244C802.245 134.793 804.593 136.95 807.451 136.95C810.31 136.95 812.658 134.793 812.658 132.244V114.598L825.622 111.853V125.284C824.806 124.695 823.683 124.401 822.56 124.401C819.701 124.401 817.354 126.46 817.354 129.107C817.354 131.754 819.701 133.813 822.56 133.813C825.418 133.813 827.562 131.852 827.766 129.303V107.441L827.562 107.147Z" fill="#1A182C"/>
<path d="M871.56 82.05C871.56 82.05 873.397 77.2463 873.295 77.2463L863.495 79.305C863.393 79.305 863.291 79.403 863.291 79.5991V97.2455C862.474 96.6573 861.351 96.3632 860.228 96.3632C857.37 96.3632 855.022 98.52 855.022 101.069C855.022 103.618 857.37 105.775 860.228 105.775C863.087 105.775 865.435 103.618 865.435 101.069V83.3244L871.56 82.05Z" fill="#1A182C"/>
<path d="M947.101 115.186C947.101 115.186 948.939 110.382 948.837 110.382L939.037 112.441C938.934 112.441 938.832 112.539 938.832 112.735V130.382C938.016 129.793 936.893 129.499 935.77 129.499C932.912 129.499 930.564 131.656 930.564 134.205C930.564 136.754 932.912 138.911 935.77 138.911C938.628 138.911 940.976 136.754 940.976 134.205V116.461L947.101 115.186Z" fill="#1A182C"/>
<path d="M756.002 125.872C756.002 125.872 757.839 121.068 757.737 121.068L747.937 123.127C747.835 123.127 747.733 123.225 747.733 123.421V141.067C746.916 140.479 745.793 140.185 744.67 140.185C741.812 140.185 739.464 142.342 739.464 144.891C739.464 147.44 741.812 149.597 744.67 149.597C747.529 149.597 749.877 147.44 749.877 144.891V127.146L756.002 125.872Z" fill="#1A182C"/>
<path d="M694.956 120.088C694.956 120.088 696.793 115.284 696.691 115.284L686.891 117.343C686.789 117.343 686.687 117.441 686.687 117.637V135.283C685.871 134.695 684.748 134.401 683.625 134.401C680.766 134.401 678.418 136.558 678.418 139.107C678.418 141.656 680.766 143.812 683.625 143.812C686.483 143.812 688.831 141.656 688.831 139.107V121.362L694.956 120.088Z" fill="#1A182C"/>
<path d="M730.583 80.8735C730.583 80.8735 732.42 76.0698 732.318 76.0698L722.518 78.1285C722.416 78.1285 722.314 78.2265 722.314 78.4226V96.069C721.498 95.4808 720.375 95.1867 719.252 95.1867C716.393 95.1867 714.046 97.3435 714.046 99.8924C714.046 102.441 716.393 104.598 719.252 104.598C722.11 104.598 724.458 102.441 724.458 99.8924V82.148L730.583 80.8735Z" fill="#1A182C"/>
<circle cx="51.5" cy="293.5" r="31.5" fill="#1A182C"/>
<rect width="1153" height="433" rx="24" fill="url(#paint0_linear_13_1209)"/>
<g filter="url(#filter0_d_13_1209)">
<path d="M52.16 379.252C50.408 379.252 48.824 378.952 47.408 378.352C46.016 377.752 44.912 376.888 44.096 375.76C43.28 374.632 42.86 373.3 42.836 371.764H48.236C48.308 372.796 48.668 373.612 49.316 374.212C49.988 374.812 50.9 375.112 52.052 375.112C53.228 375.112 54.152 374.836 54.824 374.284C55.496 373.708 55.832 372.964 55.832 372.052C55.832 371.308 55.604 370.696 55.148 370.216C54.692 369.736 54.116 369.364 53.42 369.1C52.748 368.812 51.812 368.5 50.612 368.164C48.98 367.684 47.648 367.216 46.616 366.76C45.608 366.28 44.732 365.572 43.988 364.636C43.268 363.676 42.908 362.404 42.908 360.82C42.908 359.332 43.28 358.036 44.024 356.932C44.768 355.828 45.812 354.988 47.156 354.412C48.5 353.812 50.036 353.512 51.764 353.512C54.356 353.512 56.456 354.148 58.064 355.42C59.696 356.668 60.596 358.42 60.764 360.676H55.22C55.172 359.812 54.8 359.104 54.104 358.552C53.432 357.976 52.532 357.688 51.404 357.688C50.42 357.688 49.628 357.94 49.028 358.444C48.452 358.948 48.164 359.68 48.164 360.64C48.164 361.312 48.38 361.876 48.812 362.332C49.268 362.764 49.82 363.124 50.468 363.412C51.14 363.676 52.076 363.988 53.276 364.348C54.908 364.828 56.24 365.308 57.272 365.788C58.304 366.268 59.192 366.988 59.936 367.948C60.68 368.908 61.052 370.168 61.052 371.728C61.052 373.072 60.704 374.32 60.008 375.472C59.312 376.624 58.292 377.548 56.948 378.244C55.604 378.916 54.008 379.252 52.16 379.252ZM78.0935 358.768C79.6055 358.768 80.9495 359.104 82.1255 359.776C83.3015 360.424 84.2135 361.396 84.8615 362.692C85.5335 363.964 85.8695 365.5 85.8695 367.3V379H80.8295V367.984C80.8295 366.4 80.4335 365.188 79.6415 364.348C78.8495 363.484 77.7695 363.052 76.4015 363.052C75.0095 363.052 73.9055 363.484 73.0895 364.348C72.2975 365.188 71.9015 366.4 71.9015 367.984V379H66.8615V352.36H71.9015V361.54C72.5495 360.676 73.4135 360.004 74.4935 359.524C75.5735 359.02 76.7735 358.768 78.0935 358.768ZM90.8063 368.956C90.8063 366.94 91.2023 365.152 91.9943 363.592C92.8103 362.032 93.9023 360.832 95.2703 359.992C96.6623 359.152 98.2103 358.732 99.9143 358.732C101.402 358.732 102.698 359.032 103.802 359.632C104.93 360.232 105.83 360.988 106.502 361.9V359.056H111.578V379H106.502V376.084C105.854 377.02 104.954 377.8 103.802 378.424C102.674 379.024 101.366 379.324 99.8783 379.324C98.1983 379.324 96.6623 378.892 95.2703 378.028C93.9023 377.164 92.8103 375.952 91.9943 374.392C91.2023 372.808 90.8063 370.996 90.8063 368.956ZM106.502 369.028C106.502 367.804 106.262 366.76 105.782 365.896C105.302 365.008 104.654 364.336 103.838 363.88C103.022 363.4 102.146 363.16 101.21 363.16C100.274 363.16 99.4103 363.388 98.6183 363.844C97.8263 364.3 97.1783 364.972 96.6743 365.86C96.1943 366.724 95.9543 367.756 95.9543 368.956C95.9543 370.156 96.1943 371.212 96.6743 372.124C97.1783 373.012 97.8263 373.696 98.6183 374.176C99.4343 374.656 100.298 374.896 101.21 374.896C102.146 374.896 103.022 374.668 103.838 374.212C104.654 373.732 105.302 373.06 105.782 372.196C106.262 371.308 106.502 370.252 106.502 369.028ZM122.981 362.152C123.629 361.096 124.469 360.268 125.501 359.668C126.557 359.068 127.757 358.768 129.101 358.768V364.06H127.769C126.185 364.06 124.985 364.432 124.169 365.176C123.377 365.92 122.981 367.216 122.981 369.064V379H117.941V359.056H122.981V362.152ZM152.475 368.596C152.475 369.316 152.427 369.964 152.331 370.54H137.751C137.871 371.98 138.375 373.108 139.263 373.924C140.151 374.74 141.243 375.148 142.539 375.148C144.411 375.148 145.743 374.344 146.535 372.736H151.971C151.395 374.656 150.291 376.24 148.659 377.488C147.027 378.712 145.023 379.324 142.647 379.324C140.727 379.324 138.999 378.904 137.463 378.064C135.951 377.2 134.763 375.988 133.899 374.428C133.059 372.868 132.639 371.068 132.639 369.028C132.639 366.964 133.059 365.152 133.899 363.592C134.739 362.032 135.915 360.832 137.427 359.992C138.939 359.152 140.679 358.732 142.647 358.732C144.543 358.732 146.235 359.14 147.723 359.956C149.235 360.772 150.399 361.936 151.215 363.448C152.055 364.936 152.475 366.652 152.475 368.596ZM147.255 367.156C147.231 365.86 146.763 364.828 145.851 364.06C144.939 363.268 143.823 362.872 142.503 362.872C141.255 362.872 140.199 363.256 139.335 364.024C138.495 364.768 137.979 365.812 137.787 367.156H147.255ZM186.692 359.056L174.344 388.432H168.98L173.3 378.496L165.308 359.056H170.96L176.108 372.988L181.328 359.056H186.692ZM199.705 379.324C197.785 379.324 196.057 378.904 194.521 378.064C192.985 377.2 191.773 375.988 190.885 374.428C190.021 372.868 189.589 371.068 189.589 369.028C189.589 366.988 190.033 365.188 190.921 363.628C191.833 362.068 193.069 360.868 194.629 360.028C196.189 359.164 197.929 358.732 199.849 358.732C201.769 358.732 203.509 359.164 205.069 360.028C206.629 360.868 207.853 362.068 208.741 363.628C209.653 365.188 210.109 366.988 210.109 369.028C210.109 371.068 209.641 372.868 208.705 374.428C207.793 375.988 206.545 377.2 204.961 378.064C203.401 378.904 201.649 379.324 199.705 379.324ZM199.705 374.932C200.617 374.932 201.469 374.716 202.261 374.284C203.077 373.828 203.725 373.156 204.205 372.268C204.685 371.38 204.925 370.3 204.925 369.028C204.925 367.132 204.421 365.68 203.413 364.672C202.429 363.64 201.217 363.124 199.777 363.124C198.337 363.124 197.125 363.64 196.141 364.672C195.181 365.68 194.701 367.132 194.701 369.028C194.701 370.924 195.169 372.388 196.105 373.42C197.065 374.428 198.265 374.932 199.705 374.932ZM234.074 359.056V379H228.998V376.48C228.35 377.344 227.498 378.028 226.442 378.532C225.41 379.012 224.282 379.252 223.058 379.252C221.498 379.252 220.118 378.928 218.918 378.28C217.718 377.608 216.77 376.636 216.074 375.364C215.402 374.068 215.066 372.532 215.066 370.756V359.056H220.106V370.036C220.106 371.62 220.502 372.844 221.294 373.708C222.086 374.548 223.166 374.968 224.534 374.968C225.926 374.968 227.018 374.548 227.81 373.708C228.602 372.844 228.998 371.62 228.998 370.036V359.056H234.074ZM245.527 362.152C246.175 361.096 247.015 360.268 248.047 359.668C249.103 359.068 250.303 358.768 251.647 358.768V364.06H250.315C248.731 364.06 247.531 364.432 246.715 365.176C245.923 365.92 245.527 367.216 245.527 369.064V379H240.487V359.056H245.527V362.152ZM272.368 363.196V372.844C272.368 373.516 272.524 374.008 272.836 374.32C273.172 374.608 273.724 374.752 274.492 374.752H276.832V379H273.664C269.416 379 267.292 376.936 267.292 372.808V363.196H264.916V359.056H267.292V354.124H272.368V359.056H276.832V363.196H272.368ZM293.129 358.768C294.641 358.768 295.985 359.104 297.161 359.776C298.337 360.424 299.249 361.396 299.897 362.692C300.569 363.964 300.905 365.5 300.905 367.3V379H295.865V367.984C295.865 366.4 295.469 365.188 294.677 364.348C293.885 363.484 292.805 363.052 291.437 363.052C290.045 363.052 288.941 363.484 288.125 364.348C287.333 365.188 286.937 366.4 286.937 367.984V379H281.897V352.36H286.937V361.54C287.585 360.676 288.449 360.004 289.529 359.524C290.609 359.02 291.809 358.768 293.129 358.768ZM315.994 379.324C314.074 379.324 312.346 378.904 310.81 378.064C309.274 377.2 308.062 375.988 307.174 374.428C306.31 372.868 305.878 371.068 305.878 369.028C305.878 366.988 306.322 365.188 307.21 363.628C308.122 362.068 309.358 360.868 310.918 360.028C312.478 359.164 314.218 358.732 316.138 358.732C318.058 358.732 319.798 359.164 321.358 360.028C322.918 360.868 324.142 362.068 325.03 363.628C325.942 365.188 326.398 366.988 326.398 369.028C326.398 371.068 325.93 372.868 324.994 374.428C324.082 375.988 322.834 377.2 321.25 378.064C319.69 378.904 317.938 379.324 315.994 379.324ZM315.994 374.932C316.906 374.932 317.758 374.716 318.55 374.284C319.366 373.828 320.014 373.156 320.494 372.268C320.974 371.38 321.214 370.3 321.214 369.028C321.214 367.132 320.71 365.68 319.702 364.672C318.718 363.64 317.506 363.124 316.066 363.124C314.626 363.124 313.414 363.64 312.43 364.672C311.47 365.68 310.99 367.132 310.99 369.028C310.99 370.924 311.458 372.388 312.394 373.42C313.354 374.428 314.554 374.932 315.994 374.932ZM350.363 359.056V379H345.287V376.48C344.639 377.344 343.787 378.028 342.731 378.532C341.699 379.012 340.571 379.252 339.347 379.252C337.787 379.252 336.407 378.928 335.207 378.28C334.007 377.608 333.059 376.636 332.363 375.364C331.691 374.068 331.355 372.532 331.355 370.756V359.056H336.395V370.036C336.395 371.62 336.791 372.844 337.583 373.708C338.375 374.548 339.455 374.968 340.823 374.968C342.215 374.968 343.307 374.548 344.099 373.708C344.891 372.844 345.287 371.62 345.287 370.036V359.056H350.363ZM364.587 358.732C366.075 358.732 367.383 359.032 368.511 359.632C369.639 360.208 370.527 360.964 371.175 361.9V359.056H376.251V379.144C376.251 380.992 375.879 382.636 375.135 384.076C374.391 385.54 373.275 386.692 371.787 387.532C370.299 388.396 368.499 388.828 366.387 388.828C363.555 388.828 361.227 388.168 359.403 386.848C357.603 385.528 356.583 383.728 356.343 381.448H361.347C361.611 382.36 362.175 383.08 363.039 383.608C363.927 384.16 364.995 384.436 366.243 384.436C367.707 384.436 368.895 383.992 369.807 383.104C370.719 382.24 371.175 380.92 371.175 379.144V376.048C370.527 376.984 369.627 377.764 368.475 378.388C367.347 379.012 366.051 379.324 364.587 379.324C362.907 379.324 361.371 378.892 359.979 378.028C358.587 377.164 357.483 375.952 356.667 374.392C355.875 372.808 355.479 370.996 355.479 368.956C355.479 366.94 355.875 365.152 356.667 363.592C357.483 362.032 358.575 360.832 359.943 359.992C361.335 359.152 362.883 358.732 364.587 358.732ZM371.175 369.028C371.175 367.804 370.935 366.76 370.455 365.896C369.975 365.008 369.327 364.336 368.511 363.88C367.695 363.4 366.819 363.16 365.883 363.16C364.947 363.16 364.083 363.388 363.291 363.844C362.499 364.3 361.851 364.972 361.347 365.86C360.867 366.724 360.627 367.756 360.627 368.956C360.627 370.156 360.867 371.212 361.347 372.124C361.851 373.012 362.499 373.696 363.291 374.176C364.107 374.656 364.971 374.896 365.883 374.896C366.819 374.896 367.695 374.668 368.511 374.212C369.327 373.732 369.975 373.06 370.455 372.196C370.935 371.308 371.175 370.252 371.175 369.028ZM393.846 358.768C395.358 358.768 396.702 359.104 397.878 359.776C399.054 360.424 399.966 361.396 400.614 362.692C401.286 363.964 401.622 365.5 401.622 367.3V379H396.582V367.984C396.582 366.4 396.186 365.188 395.394 364.348C394.602 363.484 393.522 363.052 392.154 363.052C390.762 363.052 389.658 363.484 388.842 364.348C388.05 365.188 387.654 366.4 387.654 367.984V379H382.614V352.36H387.654V361.54C388.302 360.676 389.166 360.004 390.246 359.524C391.326 359.02 392.526 358.768 393.846 358.768ZM413.723 363.196V372.844C413.723 373.516 413.879 374.008 414.191 374.32C414.527 374.608 415.079 374.752 415.847 374.752H418.187V379H415.019C410.771 379 408.647 376.936 408.647 372.808V363.196H406.271V359.056H408.647V354.124H413.723V359.056H418.187V363.196H413.723ZM430.884 379.324C429.252 379.324 427.788 379.036 426.492 378.46C425.196 377.86 424.164 377.056 423.396 376.048C422.652 375.04 422.244 373.924 422.172 372.7H427.248C427.344 373.468 427.716 374.104 428.364 374.608C429.036 375.112 429.864 375.364 430.848 375.364C431.808 375.364 432.552 375.172 433.08 374.788C433.632 374.404 433.908 373.912 433.908 373.312C433.908 372.664 433.572 372.184 432.9 371.872C432.252 371.536 431.208 371.176 429.768 370.792C428.28 370.432 427.056 370.06 426.096 369.676C425.16 369.292 424.344 368.704 423.648 367.912C422.976 367.12 422.64 366.052 422.64 364.708C422.64 363.604 422.952 362.596 423.576 361.684C424.224 360.772 425.136 360.052 426.312 359.524C427.512 358.996 428.916 358.732 430.524 358.732C432.9 358.732 434.796 359.332 436.212 360.532C437.628 361.708 438.408 363.304 438.552 365.32H433.728C433.656 364.528 433.32 363.904 432.72 363.448C432.144 362.968 431.364 362.728 430.38 362.728C429.468 362.728 428.76 362.896 428.256 363.232C427.776 363.568 427.536 364.036 427.536 364.636C427.536 365.308 427.872 365.824 428.544 366.184C429.216 366.52 430.26 366.868 431.676 367.228C433.116 367.588 434.304 367.96 435.24 368.344C436.176 368.728 436.98 369.328 437.652 370.144C438.348 370.936 438.708 371.992 438.732 373.312C438.732 374.464 438.408 375.496 437.76 376.408C437.136 377.32 436.224 378.04 435.024 378.568C433.848 379.072 432.468 379.324 430.884 379.324ZM453.031 368.956C453.031 366.94 453.427 365.152 454.219 363.592C455.035 362.032 456.127 360.832 457.495 359.992C458.887 359.152 460.435 358.732 462.139 358.732C463.627 358.732 464.923 359.032 466.027 359.632C467.155 360.232 468.055 360.988 468.727 361.9V359.056H473.803V379H468.727V376.084C468.079 377.02 467.179 377.8 466.027 378.424C464.899 379.024 463.591 379.324 462.103 379.324C460.423 379.324 458.887 378.892 457.495 378.028C456.127 377.164 455.035 375.952 454.219 374.392C453.427 372.808 453.031 370.996 453.031 368.956ZM468.727 369.028C468.727 367.804 468.487 366.76 468.007 365.896C467.527 365.008 466.879 364.336 466.063 363.88C465.247 363.4 464.371 363.16 463.435 363.16C462.499 363.16 461.635 363.388 460.843 363.844C460.051 364.3 459.403 364.972 458.899 365.86C458.419 366.724 458.179 367.756 458.179 368.956C458.179 370.156 458.419 371.212 458.899 372.124C459.403 373.012 460.051 373.696 460.843 374.176C461.659 374.656 462.523 374.896 463.435 374.896C464.371 374.896 465.247 374.668 466.063 374.212C466.879 373.732 467.527 373.06 468.007 372.196C468.487 371.308 468.727 370.252 468.727 369.028ZM491.217 358.768C493.593 358.768 495.513 359.524 496.977 361.036C498.441 362.524 499.173 364.612 499.173 367.3V379H494.133V367.984C494.133 366.4 493.737 365.188 492.945 364.348C492.153 363.484 491.073 363.052 489.705 363.052C488.313 363.052 487.209 363.484 486.393 364.348C485.601 365.188 485.205 366.4 485.205 367.984V379H480.165V359.056H485.205V361.54C485.877 360.676 486.729 360.004 487.761 359.524C488.817 359.02 489.969 358.768 491.217 358.768ZM504.11 368.956C504.11 366.94 504.506 365.152 505.298 363.592C506.114 362.032 507.218 360.832 508.61 359.992C510.002 359.152 511.55 358.732 513.254 358.732C514.55 358.732 515.786 359.02 516.962 359.596C518.138 360.148 519.074 360.892 519.77 361.828V352.36H524.882V379H519.77V376.048C519.146 377.032 518.27 377.824 517.142 378.424C516.014 379.024 514.706 379.324 513.218 379.324C511.538 379.324 510.002 378.892 508.61 378.028C507.218 377.164 506.114 375.952 505.298 374.392C504.506 372.808 504.11 370.996 504.11 368.956ZM519.806 369.028C519.806 367.804 519.566 366.76 519.086 365.896C518.606 365.008 517.958 364.336 517.142 363.88C516.326 363.4 515.45 363.16 514.514 363.16C513.578 363.16 512.714 363.388 511.922 363.844C511.13 364.3 510.482 364.972 509.978 365.86C509.498 366.724 509.258 367.756 509.258 368.956C509.258 370.156 509.498 371.212 509.978 372.124C510.482 373.012 511.13 373.696 511.922 374.176C512.738 374.656 513.602 374.896 514.514 374.896C515.45 374.896 516.326 374.668 517.142 374.212C517.958 373.732 518.606 373.06 519.086 372.196C519.566 371.308 519.806 370.252 519.806 369.028ZM559.803 368.596C559.803 369.316 559.755 369.964 559.659 370.54H545.079C545.199 371.98 545.703 373.108 546.591 373.924C547.479 374.74 548.571 375.148 549.867 375.148C551.739 375.148 553.071 374.344 553.863 372.736H559.299C558.723 374.656 557.619 376.24 555.987 377.488C554.355 378.712 552.351 379.324 549.975 379.324C548.055 379.324 546.327 378.904 544.791 378.064C543.279 377.2 542.091 375.988 541.227 374.428C540.387 372.868 539.967 371.068 539.967 369.028C539.967 366.964 540.387 365.152 541.227 363.592C542.067 362.032 543.243 360.832 544.755 359.992C546.267 359.152 548.007 358.732 549.975 358.732C551.871 358.732 553.563 359.14 555.051 359.956C556.563 360.772 557.727 361.936 558.543 363.448C559.383 364.936 559.803 366.652 559.803 368.596ZM554.583 367.156C554.559 365.86 554.091 364.828 553.179 364.06C552.267 363.268 551.151 362.872 549.831 362.872C548.583 362.872 547.527 363.256 546.663 364.024C545.823 364.768 545.307 365.812 545.115 367.156H554.583ZM575.938 379L571.834 372.808L568.198 379H562.798L569.314 368.992L562.726 359.056H568.414L572.482 365.212L576.154 359.056H581.554L575.002 368.992L581.626 379H575.938ZM590.843 361.936C591.491 361.024 592.379 360.268 593.507 359.668C594.659 359.044 595.967 358.732 597.431 358.732C599.135 358.732 600.671 359.152 602.039 359.992C603.431 360.832 604.523 362.032 605.315 363.592C606.131 365.128 606.539 366.916 606.539 368.956C606.539 370.996 606.131 372.808 605.315 374.392C604.523 375.952 603.431 377.164 602.039 378.028C600.671 378.892 599.135 379.324 597.431 379.324C595.967 379.324 594.671 379.024 593.543 378.424C592.439 377.824 591.539 377.068 590.843 376.156V388.504H585.803V359.056H590.843V361.936ZM601.391 368.956C601.391 367.756 601.139 366.724 600.635 365.86C600.155 364.972 599.507 364.3 598.691 363.844C597.899 363.388 597.035 363.16 596.099 363.16C595.187 363.16 594.323 363.4 593.507 363.88C592.715 364.336 592.067 365.008 591.563 365.896C591.083 366.784 590.843 367.828 590.843 369.028C590.843 370.228 591.083 371.272 591.563 372.16C592.067 373.048 592.715 373.732 593.507 374.212C594.323 374.668 595.187 374.896 596.099 374.896C597.035 374.896 597.899 374.656 598.691 374.176C599.507 373.696 600.155 373.012 600.635 372.124C601.139 371.236 601.391 370.18 601.391 368.956ZM630.181 368.596C630.181 369.316 630.133 369.964 630.037 370.54H615.457C615.577 371.98 616.081 373.108 616.969 373.924C617.857 374.74 618.949 375.148 620.245 375.148C622.117 375.148 623.449 374.344 624.241 372.736H629.677C629.101 374.656 627.997 376.24 626.365 377.488C624.733 378.712 622.729 379.324 620.353 379.324C618.433 379.324 616.705 378.904 615.169 378.064C613.657 377.2 612.469 375.988 611.605 374.428C610.765 372.868 610.345 371.068 610.345 369.028C610.345 366.964 610.765 365.152 611.605 363.592C612.445 362.032 613.621 360.832 615.133 359.992C616.645 359.152 618.385 358.732 620.353 358.732C622.249 358.732 623.941 359.14 625.429 359.956C626.941 360.772 628.105 361.936 628.921 363.448C629.761 364.936 630.181 366.652 630.181 368.596ZM624.961 367.156C624.937 365.86 624.469 364.828 623.557 364.06C622.645 363.268 621.529 362.872 620.209 362.872C618.961 362.872 617.905 363.256 617.041 364.024C616.201 364.768 615.685 365.812 615.493 367.156H624.961ZM640.34 362.152C640.988 361.096 641.828 360.268 642.86 359.668C643.916 359.068 645.116 358.768 646.46 358.768V364.06H645.128C643.544 364.06 642.344 364.432 641.528 365.176C640.736 365.92 640.34 367.216 640.34 369.064V379H635.3V359.056H640.34V362.152ZM653.851 356.68C652.963 356.68 652.219 356.404 651.619 355.852C651.043 355.276 650.755 354.568 650.755 353.728C650.755 352.888 651.043 352.192 651.619 351.64C652.219 351.064 652.963 350.776 653.851 350.776C654.739 350.776 655.471 351.064 656.047 351.64C656.647 352.192 656.947 352.888 656.947 353.728C656.947 354.568 656.647 355.276 656.047 355.852C655.471 356.404 654.739 356.68 653.851 356.68ZM656.335 359.056V379H651.295V359.056H656.335ZM681.294 368.596C681.294 369.316 681.246 369.964 681.15 370.54H666.57C666.69 371.98 667.194 373.108 668.082 373.924C668.97 374.74 670.062 375.148 671.358 375.148C673.23 375.148 674.562 374.344 675.354 372.736H680.79C680.214 374.656 679.11 376.24 677.478 377.488C675.846 378.712 673.842 379.324 671.466 379.324C669.546 379.324 667.818 378.904 666.282 378.064C664.77 377.2 663.582 375.988 662.718 374.428C661.878 372.868 661.458 371.068 661.458 369.028C661.458 366.964 661.878 365.152 662.718 363.592C663.558 362.032 664.734 360.832 666.246 359.992C667.758 359.152 669.498 358.732 671.466 358.732C673.362 358.732 675.054 359.14 676.542 359.956C678.054 360.772 679.218 361.936 680.034 363.448C680.874 364.936 681.294 366.652 681.294 368.596ZM676.074 367.156C676.05 365.86 675.582 364.828 674.67 364.06C673.758 363.268 672.642 362.872 671.322 362.872C670.074 362.872 669.018 363.256 668.154 364.024C667.314 364.768 666.798 365.812 666.606 367.156H676.074ZM697.465 358.768C699.841 358.768 701.761 359.524 703.225 361.036C704.689 362.524 705.421 364.612 705.421 367.3V379H700.381V367.984C700.381 366.4 699.985 365.188 699.193 364.348C698.401 363.484 697.321 363.052 695.953 363.052C694.561 363.052 693.457 363.484 692.641 364.348C691.849 365.188 691.453 366.4 691.453 367.984V379H686.413V359.056H691.453V361.54C692.125 360.676 692.977 360.004 694.009 359.524C695.065 359.02 696.217 358.768 697.465 358.768ZM710.358 369.028C710.358 366.964 710.778 365.164 711.618 363.628C712.458 362.068 713.622 360.868 715.11 360.028C716.598 359.164 718.302 358.732 720.222 358.732C722.694 358.732 724.734 359.356 726.342 360.604C727.974 361.828 729.066 363.556 729.618 365.788H724.182C723.894 364.924 723.402 364.252 722.706 363.772C722.034 363.268 721.194 363.016 720.186 363.016C718.746 363.016 717.606 363.544 716.766 364.6C715.926 365.632 715.506 367.108 715.506 369.028C715.506 370.924 715.926 372.4 716.766 373.456C717.606 374.488 718.746 375.004 720.186 375.004C722.226 375.004 723.558 374.092 724.182 372.268H729.618C729.066 374.428 727.974 376.144 726.342 377.416C724.71 378.688 722.67 379.324 720.222 379.324C718.302 379.324 716.598 378.904 715.11 378.064C713.622 377.2 712.458 376 711.618 374.464C710.778 372.904 710.358 371.092 710.358 369.028ZM753.29 368.596C753.29 369.316 753.242 369.964 753.146 370.54H738.566C738.686 371.98 739.19 373.108 740.078 373.924C740.966 374.74 742.058 375.148 743.354 375.148C745.226 375.148 746.558 374.344 747.35 372.736H752.786C752.21 374.656 751.106 376.24 749.474 377.488C747.842 378.712 745.838 379.324 743.462 379.324C741.542 379.324 739.814 378.904 738.278 378.064C736.766 377.2 735.578 375.988 734.714 374.428C733.874 372.868 733.454 371.068 733.454 369.028C733.454 366.964 733.874 365.152 734.714 363.592C735.554 362.032 736.73 360.832 738.242 359.992C739.754 359.152 741.494 358.732 743.462 358.732C745.358 358.732 747.05 359.14 748.538 359.956C750.05 360.772 751.214 361.936 752.03 363.448C752.87 364.936 753.29 366.652 753.29 368.596ZM748.07 367.156C748.046 365.86 747.578 364.828 746.666 364.06C745.754 363.268 744.638 362.872 743.318 362.872C742.07 362.872 741.014 363.256 740.15 364.024C739.31 364.768 738.794 365.812 738.602 367.156H748.07ZM766.041 379.324C764.409 379.324 762.945 379.036 761.649 378.46C760.353 377.86 759.321 377.056 758.553 376.048C757.809 375.04 757.401 373.924 757.329 372.7H762.405C762.501 373.468 762.873 374.104 763.521 374.608C764.193 375.112 765.021 375.364 766.005 375.364C766.965 375.364 767.709 375.172 768.237 374.788C768.789 374.404 769.065 373.912 769.065 373.312C769.065 372.664 768.729 372.184 768.057 371.872C767.409 371.536 766.365 371.176 764.925 370.792C763.437 370.432 762.213 370.06 761.253 369.676C760.317 369.292 759.501 368.704 758.805 367.912C758.133 367.12 757.797 366.052 757.797 364.708C757.797 363.604 758.109 362.596 758.733 361.684C759.381 360.772 760.293 360.052 761.469 359.524C762.669 358.996 764.073 358.732 765.681 358.732C768.057 358.732 769.953 359.332 771.369 360.532C772.785 361.708 773.565 363.304 773.709 365.32H768.885C768.813 364.528 768.477 363.904 767.877 363.448C767.301 362.968 766.521 362.728 765.537 362.728C764.625 362.728 763.917 362.896 763.413 363.232C762.933 363.568 762.693 364.036 762.693 364.636C762.693 365.308 763.029 365.824 763.701 366.184C764.373 366.52 765.417 366.868 766.833 367.228C768.273 367.588 769.461 367.96 770.397 368.344C771.333 368.728 772.137 369.328 772.809 370.144C773.505 370.936 773.865 371.992 773.889 373.312C773.889 374.464 773.565 375.496 772.917 376.408C772.293 377.32 771.381 378.04 770.181 378.568C769.005 379.072 767.625 379.324 766.041 379.324ZM817.132 359.056L811.3 379H805.864L802.228 365.068L798.592 379H793.12L787.252 359.056H792.364L795.892 374.248L799.708 359.056H805.036L808.78 374.212L812.308 359.056H817.132ZM823.855 356.68C822.967 356.68 822.223 356.404 821.623 355.852C821.047 355.276 820.759 354.568 820.759 353.728C820.759 352.888 821.047 352.192 821.623 351.64C822.223 351.064 822.967 350.776 823.855 350.776C824.743 350.776 825.475 351.064 826.051 351.64C826.651 352.192 826.951 352.888 826.951 353.728C826.951 354.568 826.651 355.276 826.051 355.852C825.475 356.404 824.743 356.68 823.855 356.68ZM826.339 359.056V379H821.299V359.056H826.339ZM838.627 363.196V372.844C838.627 373.516 838.783 374.008 839.095 374.32C839.431 374.608 839.983 374.752 840.751 374.752H843.091V379H839.923C835.675 379 833.551 376.936 833.551 372.808V363.196H831.175V359.056H833.551V354.124H838.627V359.056H843.091V363.196H838.627ZM859.388 358.768C860.9 358.768 862.244 359.104 863.42 359.776C864.596 360.424 865.508 361.396 866.156 362.692C866.828 363.964 867.164 365.5 867.164 367.3V379H862.124V367.984C862.124 366.4 861.728 365.188 860.936 364.348C860.144 363.484 859.064 363.052 857.696 363.052C856.304 363.052 855.2 363.484 854.384 364.348C853.592 365.188 853.196 366.4 853.196 367.984V379H848.156V352.36H853.196V361.54C853.844 360.676 854.708 360.004 855.788 359.524C856.868 359.02 858.068 358.768 859.388 358.768ZM882.191 366.4C882.191 363.928 882.743 361.72 883.847 359.776C884.975 357.808 886.499 356.284 888.419 355.204C890.363 354.1 892.535 353.548 894.935 353.548C897.743 353.548 900.203 354.268 902.315 355.708C904.427 357.148 905.903 359.14 906.743 361.684H900.947C900.371 360.484 899.555 359.584 898.499 358.984C897.467 358.384 896.267 358.084 894.899 358.084C893.435 358.084 892.127 358.432 890.975 359.128C889.847 359.8 888.959 360.76 888.311 362.008C887.687 363.256 887.375 364.72 887.375 366.4C887.375 368.056 887.687 369.52 888.311 370.792C888.959 372.04 889.847 373.012 890.975 373.708C892.127 374.38 893.435 374.716 894.899 374.716C896.267 374.716 897.467 374.416 898.499 373.816C899.555 373.192 900.371 372.28 900.947 371.08H906.743C905.903 373.648 904.427 375.652 902.315 377.092C900.227 378.508 897.767 379.216 894.935 379.216C892.535 379.216 890.363 378.676 888.419 377.596C886.499 376.492 884.975 374.968 883.847 373.024C882.743 371.08 882.191 368.872 882.191 366.4ZM921.343 379.324C919.423 379.324 917.695 378.904 916.159 378.064C914.623 377.2 913.411 375.988 912.523 374.428C911.659 372.868 911.227 371.068 911.227 369.028C911.227 366.988 911.671 365.188 912.559 363.628C913.471 362.068 914.707 360.868 916.267 360.028C917.827 359.164 919.567 358.732 921.487 358.732C923.407 358.732 925.147 359.164 926.707 360.028C928.267 360.868 929.491 362.068 930.379 363.628C931.291 365.188 931.747 366.988 931.747 369.028C931.747 371.068 931.279 372.868 930.343 374.428C929.431 375.988 928.183 377.2 926.599 378.064C925.039 378.904 923.287 379.324 921.343 379.324ZM921.343 374.932C922.255 374.932 923.107 374.716 923.899 374.284C924.715 373.828 925.363 373.156 925.843 372.268C926.323 371.38 926.563 370.3 926.563 369.028C926.563 367.132 926.059 365.68 925.051 364.672C924.067 363.64 922.855 363.124 921.415 363.124C919.975 363.124 918.763 363.64 917.779 364.672C916.819 365.68 916.339 367.132 916.339 369.028C916.339 370.924 916.807 372.388 917.743 373.42C918.703 374.428 919.903 374.932 921.343 374.932ZM961.652 358.768C964.1 358.768 966.068 359.524 967.556 361.036C969.068 362.524 969.824 364.612 969.824 367.3V379H964.784V367.984C964.784 366.424 964.388 365.236 963.596 364.42C962.804 363.58 961.724 363.16 960.356 363.16C958.988 363.16 957.896 363.58 957.08 364.42C956.288 365.236 955.892 366.424 955.892 367.984V379H950.852V367.984C950.852 366.424 950.456 365.236 949.664 364.42C948.872 363.58 947.792 363.16 946.424 363.16C945.032 363.16 943.928 363.58 943.112 364.42C942.32 365.236 941.924 366.424 941.924 367.984V379H936.884V359.056H941.924V361.468C942.572 360.628 943.4 359.968 944.408 359.488C945.44 359.008 946.568 358.768 947.792 358.768C949.352 358.768 950.744 359.104 951.968 359.776C953.192 360.424 954.14 361.36 954.812 362.584C955.46 361.432 956.396 360.508 957.62 359.812C958.868 359.116 960.212 358.768 961.652 358.768ZM1000.82 358.768C1003.26 358.768 1005.23 359.524 1006.72 361.036C1008.23 362.524 1008.99 364.612 1008.99 367.3V379H1003.95V367.984C1003.95 366.424 1003.55 365.236 1002.76 364.42C1001.97 363.58 1000.89 363.16 999.519 363.16C998.151 363.16 997.059 363.58 996.243 364.42C995.451 365.236 995.055 366.424 995.055 367.984V379H990.015V367.984C990.015 366.424 989.619 365.236 988.827 364.42C988.035 363.58 986.955 363.16 985.587 363.16C984.195 363.16 983.091 363.58 982.275 364.42C981.483 365.236 981.087 366.424 981.087 367.984V379H976.047V359.056H981.087V361.468C981.735 360.628 982.563 359.968 983.571 359.488C984.603 359.008 985.731 358.768 986.955 358.768C988.515 358.768 989.907 359.104 991.131 359.776C992.355 360.424 993.303 361.36 993.975 362.584C994.623 361.432 995.559 360.508 996.783 359.812C998.031 359.116 999.375 358.768 1000.82 358.768ZM1034.04 359.056V379H1028.96V376.48C1028.31 377.344 1027.46 378.028 1026.41 378.532C1025.37 379.012 1024.25 379.252 1023.02 379.252C1021.46 379.252 1020.08 378.928 1018.88 378.28C1017.68 377.608 1016.73 376.636 1016.04 375.364C1015.37 374.068 1015.03 372.532 1015.03 370.756V359.056H1020.07V370.036C1020.07 371.62 1020.47 372.844 1021.26 373.708C1022.05 374.548 1023.13 374.968 1024.5 374.968C1025.89 374.968 1026.98 374.548 1027.77 373.708C1028.57 372.844 1028.96 371.62 1028.96 370.036V359.056H1034.04ZM1051.5 358.768C1053.88 358.768 1055.8 359.524 1057.26 361.036C1058.73 362.524 1059.46 364.612 1059.46 367.3V379H1054.42V367.984C1054.42 366.4 1054.02 365.188 1053.23 364.348C1052.44 363.484 1051.36 363.052 1049.99 363.052C1048.6 363.052 1047.49 363.484 1046.68 364.348C1045.89 365.188 1045.49 366.4 1045.49 367.984V379H1040.45V359.056H1045.49V361.54C1046.16 360.676 1047.01 360.004 1048.05 359.524C1049.1 359.02 1050.25 358.768 1051.5 358.768ZM1068.25 356.68C1067.36 356.68 1066.62 356.404 1066.02 355.852C1065.44 355.276 1065.15 354.568 1065.15 353.728C1065.15 352.888 1065.44 352.192 1066.02 351.64C1066.62 351.064 1067.36 350.776 1068.25 350.776C1069.14 350.776 1069.87 351.064 1070.44 351.64C1071.04 352.192 1071.34 352.888 1071.34 353.728C1071.34 354.568 1071.04 355.276 1070.44 355.852C1069.87 356.404 1069.14 356.68 1068.25 356.68ZM1070.73 359.056V379H1065.69V359.056H1070.73ZM1083.02 363.196V372.844C1083.02 373.516 1083.17 374.008 1083.49 374.32C1083.82 374.608 1084.37 374.752 1085.14 374.752H1087.48V379H1084.31C1080.07 379 1077.94 376.936 1077.94 372.808V363.196H1075.57V359.056H1077.94V354.124H1083.02V359.056H1087.48V363.196H1083.02ZM1111.63 359.056L1099.28 388.432H1093.92L1098.24 378.496L1090.24 359.056H1095.9L1101.04 372.988L1106.26 359.056H1111.63Z" fill="black"/>
</g>
</g>
<defs>
<filter id="filter0_d_13_1209" x="-1.564" y="310.376" width="1157.59" height="126.852" filterUnits="userSpaceOnUse" color-interpolation-filters="sRGB">
<feFlood flood-opacity="0" result="BackgroundImageFix"/>
<feColorMatrix in="SourceAlpha" type="matrix" values="0 0 0 0 0 0 0 0 0 0 0 0 0 0 0 0 0 0 127 0" result="hardAlpha"/>
<feOffset dy="4"/>
<feGaussianBlur stdDeviation="22.2"/>
<feComposite in2="hardAlpha" operator="out"/>
<feColorMatrix type="matrix" values="0 0 0 0 0 0 0 0 0 0 0 0 0 0 0 0 0 0 0.25 0"/>
<feBlend mode="normal" in2="BackgroundImageFix" result="effect1_dropShadow_13_1209"/>
<feBlend mode="normal" in="SourceGraphic" in2="effect1_dropShadow_13_1209" result="shape"/>
</filter>
<linearGradient id="paint0_linear_13_1209" x1="576.5" y1="0" x2="576.5" y2="433" gradientUnits="userSpaceOnUse">
<stop offset="0.37" stop-color="white" stop-opacity="0"/>
<stop offset="0.615" stop-color="white" stop-opacity="0.38"/>
<stop offset="0.74" stop-color="white"/>
<stop offset="0.95" stop-color="white"/>
</linearGradient>
</defs>
</svg>
