<svg width="325" height="121" viewBox="0 0 325 121" fill="none" xmlns="http://www.w3.org/2000/svg">
<ellipse cx="282.887" cy="38.1253" rx="41.4655" ry="36.2823" fill="white"/>
<ellipse cx="260.772" cy="78.4389" rx="41.4655" ry="36.2823" fill="white"/>
<ellipse cx="225.757" cy="42.9629" rx="41.4655" ry="36.2823" fill="white"/>
<ellipse cx="211.013" cy="80.0515" rx="41.4655" ry="36.2823" fill="white"/>
<ellipse cx="177.841" cy="36.2823" rx="41.4655" ry="36.2823" fill="white"/>
<ellipse cx="155.726" cy="76.596" rx="41.4655" ry="36.2823" fill="white"/>
<ellipse cx="120.711" cy="41.12" rx="41.4655" ry="36.2823" fill="white"/>
<ellipse cx="105.967" cy="78.2086" rx="41.4655" ry="36.2823" fill="white"/>
<ellipse cx="63.5805" cy="43.654" rx="41.4655" ry="36.2823" fill="white"/>
<ellipse cx="41.4655" cy="83.9677" rx="41.4655" ry="36.2823" fill="white"/>
<path d="M61.896 54.64C61.4907 53.8933 60.904 53.328 60.136 52.944C59.3893 52.5387 58.504 52.336 57.48 52.336C55.7093 52.336 54.2907 52.9227 53.224 54.096C52.1573 55.248 51.624 56.7947 51.624 58.736C51.624 60.8053 52.1787 62.4267 53.288 63.6C54.4187 64.752 55.9653 65.328 57.928 65.328C59.272 65.328 60.4027 64.9867 61.32 64.304C62.2587 63.6213 62.9413 62.64 63.368 61.36H56.424V57.328H68.328V62.416C67.9227 63.7813 67.2293 65.0507 66.248 66.224C65.288 67.3973 64.0613 68.3467 62.568 69.072C61.0747 69.7973 59.3893 70.16 57.512 70.16C55.2933 70.16 53.3093 69.68 51.56 68.72C49.832 67.7387 48.4773 66.384 47.496 64.656C46.536 62.928 46.056 60.9547 46.056 58.736C46.056 56.5173 46.536 54.544 47.496 52.816C48.4773 51.0667 49.832 49.712 51.56 48.752C53.288 47.7707 55.2613 47.28 57.48 47.28C60.168 47.28 62.4293 47.9307 64.264 49.232C66.12 50.5333 67.3467 52.336 67.944 54.64H61.896ZM90.111 60.784C90.111 61.296 90.079 61.8293 90.015 62.384H77.631C77.7163 63.4933 78.0683 64.3467 78.687 64.944C79.327 65.52 80.1057 65.808 81.023 65.808C82.3883 65.808 83.3377 65.232 83.871 64.08H89.695C89.3963 65.2533 88.8523 66.3093 88.063 67.248C87.295 68.1867 86.3243 68.9227 85.151 69.456C83.9777 69.9893 82.6657 70.256 81.215 70.256C79.4657 70.256 77.9083 69.8827 76.543 69.136C75.1777 68.3893 74.111 67.3227 73.343 65.936C72.575 64.5493 72.191 62.928 72.191 61.072C72.191 59.216 72.5643 57.5947 73.311 56.208C74.079 54.8213 75.1457 53.7547 76.511 53.008C77.8763 52.2613 79.4443 51.888 81.215 51.888C82.943 51.888 84.479 52.2507 85.823 52.976C87.167 53.7013 88.2123 54.736 88.959 56.08C89.727 57.424 90.111 58.992 90.111 60.784ZM84.511 59.344C84.511 58.4053 84.191 57.6587 83.551 57.104C82.911 56.5493 82.111 56.272 81.151 56.272C80.2337 56.272 79.455 56.5387 78.815 57.072C78.1963 57.6053 77.8123 58.3627 77.663 59.344H84.511ZM104.87 65.36V70H102.086C100.102 70 98.5551 69.52 97.4458 68.56C96.3364 67.5787 95.7818 65.9893 95.7818 63.792V56.688H93.6058V52.144H95.7818V47.792H101.254V52.144H104.838V56.688H101.254V63.856C101.254 64.3893 101.382 64.7733 101.638 65.008C101.894 65.2427 102.32 65.36 102.918 65.36H104.87ZM124.747 70.224C123.104 70.224 121.632 69.9573 120.331 69.424C119.03 68.8907 117.984 68.1013 117.195 67.056C116.427 66.0107 116.022 64.752 115.979 63.28H121.803C121.888 64.112 122.176 64.752 122.667 65.2C123.158 65.6267 123.798 65.84 124.587 65.84C125.398 65.84 126.038 65.6587 126.507 65.296C126.976 64.912 127.211 64.3893 127.211 63.728C127.211 63.1733 127.019 62.7147 126.635 62.352C126.272 61.9893 125.814 61.6907 125.259 61.456C124.726 61.2213 123.958 60.9547 122.955 60.656C121.504 60.208 120.32 59.76 119.403 59.312C118.486 58.864 117.696 58.2027 117.035 57.328C116.374 56.4533 116.043 55.312 116.043 53.904C116.043 51.8133 116.8 50.1813 118.315 49.008C119.83 47.8133 121.803 47.216 124.235 47.216C126.71 47.216 128.704 47.8133 130.219 49.008C131.734 50.1813 132.544 51.824 132.651 53.936H126.731C126.688 53.2107 126.422 52.6453 125.931 52.24C125.44 51.8133 124.811 51.6 124.043 51.6C123.382 51.6 122.848 51.7813 122.443 52.144C122.038 52.4853 121.835 52.9867 121.835 53.648C121.835 54.3733 122.176 54.9387 122.859 55.344C123.542 55.7493 124.608 56.1867 126.059 56.656C127.51 57.1467 128.683 57.616 129.579 58.064C130.496 58.512 131.286 59.1627 131.947 60.016C132.608 60.8693 132.939 61.968 132.939 63.312C132.939 64.592 132.608 65.7547 131.947 66.8C131.307 67.8453 130.368 68.6773 129.131 69.296C127.894 69.9147 126.432 70.224 124.747 70.224ZM148.179 65.36V70H145.395C143.411 70 141.864 69.52 140.755 68.56C139.645 67.5787 139.091 65.9893 139.091 63.792V56.688H136.915V52.144H139.091V47.792H144.563V52.144H148.147V56.688H144.563V63.856C144.563 64.3893 144.691 64.7733 144.947 65.008C145.203 65.2427 145.629 65.36 146.227 65.36H148.179ZM152.058 61.04C152.058 59.2053 152.4 57.5947 153.082 56.208C153.786 54.8213 154.736 53.7547 155.93 53.008C157.125 52.2613 158.458 51.888 159.93 51.888C161.189 51.888 162.288 52.144 163.226 52.656C164.186 53.168 164.922 53.84 165.434 54.672V52.144H170.906V70H165.434V67.472C164.901 68.304 164.154 68.976 163.194 69.488C162.256 70 161.157 70.256 159.898 70.256C158.448 70.256 157.125 69.8827 155.93 69.136C154.736 68.368 153.786 67.2907 153.082 65.904C152.4 64.496 152.058 62.8747 152.058 61.04ZM165.434 61.072C165.434 59.7067 165.05 58.6293 164.282 57.84C163.536 57.0507 162.618 56.656 161.53 56.656C160.442 56.656 159.514 57.0507 158.746 57.84C158 58.608 157.626 59.6747 157.626 61.04C157.626 62.4053 158 63.4933 158.746 64.304C159.514 65.0933 160.442 65.488 161.53 65.488C162.618 65.488 163.536 65.0933 164.282 64.304C165.05 63.5147 165.434 62.4373 165.434 61.072ZM182.257 55.12C182.897 54.1387 183.697 53.3707 184.657 52.816C185.617 52.24 186.684 51.952 187.857 51.952V57.744H186.353C184.988 57.744 183.964 58.0427 183.281 58.64C182.599 59.216 182.257 60.24 182.257 61.712V70H176.785V52.144H182.257V55.12ZM202.345 65.36V70H199.561C197.577 70 196.03 69.52 194.921 68.56C193.811 67.5787 193.257 65.9893 193.257 63.792V56.688H191.081V52.144H193.257V47.792H198.729V52.144H202.313V56.688H198.729V63.856C198.729 64.3893 198.857 64.7733 199.113 65.008C199.369 65.2427 199.795 65.36 200.393 65.36H202.345ZM224.145 60.784C224.145 61.296 224.113 61.8293 224.049 62.384H211.665C211.75 63.4933 212.102 64.3467 212.721 64.944C213.361 65.52 214.139 65.808 215.057 65.808C216.422 65.808 217.371 65.232 217.905 64.08H223.729C223.43 65.2533 222.886 66.3093 222.097 67.248C221.329 68.1867 220.358 68.9227 219.185 69.456C218.011 69.9893 216.699 70.256 215.249 70.256C213.499 70.256 211.942 69.8827 210.577 69.136C209.211 68.3893 208.145 67.3227 207.377 65.936C206.609 64.5493 206.225 62.928 206.225 61.072C206.225 59.216 206.598 57.5947 207.345 56.208C208.113 54.8213 209.179 53.7547 210.545 53.008C211.91 52.2613 213.478 51.888 215.249 51.888C216.977 51.888 218.513 52.2507 219.857 52.976C221.201 53.7013 222.246 54.736 222.993 56.08C223.761 57.424 224.145 58.992 224.145 60.784ZM218.545 59.344C218.545 58.4053 218.225 57.6587 217.585 57.104C216.945 56.5493 216.145 56.272 215.185 56.272C214.267 56.272 213.489 56.5387 212.849 57.072C212.23 57.6053 211.846 58.3627 211.697 59.344H218.545ZM227.863 61.04C227.863 59.2053 228.205 57.5947 228.887 56.208C229.591 54.8213 230.541 53.7547 231.735 53.008C232.93 52.2613 234.263 51.888 235.735 51.888C236.909 51.888 237.975 52.1333 238.935 52.624C239.917 53.1147 240.685 53.776 241.239 54.608V46.32H246.712V70H241.239V67.44C240.727 68.2933 239.991 68.976 239.031 69.488C238.093 70 236.994 70.256 235.735 70.256C234.263 70.256 232.93 69.8827 231.735 69.136C230.541 68.368 229.591 67.2907 228.887 65.904C228.205 64.496 227.863 62.8747 227.863 61.04ZM241.239 61.072C241.239 59.7067 240.855 58.6293 240.087 57.84C239.341 57.0507 238.423 56.656 237.335 56.656C236.247 56.656 235.319 57.0507 234.551 57.84C233.805 58.608 233.431 59.6747 233.431 61.04C233.431 62.4053 233.805 63.4933 234.551 64.304C235.319 65.0933 236.247 65.488 237.335 65.488C238.423 65.488 239.341 65.0933 240.087 64.304C240.855 63.5147 241.239 62.4373 241.239 61.072Z" fill="black"/>
<path d="M256 58C254.895 58 254 58.8954 254 60C254 61.1046 254.895 62 256 62V58ZM285.414 61.4142C286.195 60.6332 286.195 59.3668 285.414 58.5858L272.686 45.8579C271.905 45.0768 270.639 45.0768 269.858 45.8579C269.077 46.6389 269.077 47.9052 269.858 48.6863L281.172 60L269.858 71.3137C269.077 72.0948 269.077 73.3611 269.858 74.1421C270.639 74.9232 271.905 74.9232 272.686 74.1421L285.414 61.4142ZM256 62L284 62V58L256 58V62Z" fill="black"/>
</svg>
