<svg width="176" height="66" viewBox="0 0 176 66" fill="none" xmlns="http://www.w3.org/2000/svg">
<ellipse cx="153.5" cy="20.6875" rx="22.5" ry="19.6875" fill="#1A182C"/>
<ellipse cx="141.5" cy="42.5625" rx="22.5" ry="19.6875" fill="#1A182C"/>
<ellipse cx="122.5" cy="23.3125" rx="22.5" ry="19.6875" fill="#1A182C"/>
<ellipse cx="114.5" cy="43.4375" rx="22.5" ry="19.6875" fill="#1A182C"/>
<ellipse cx="96.5" cy="19.6875" rx="22.5" ry="19.6875" fill="#1A182C"/>
<ellipse cx="84.5" cy="41.5625" rx="22.5" ry="19.6875" fill="#1A182C"/>
<ellipse cx="65.5" cy="22.3125" rx="22.5" ry="19.6875" fill="#1A182C"/>
<ellipse cx="57.5" cy="42.4375" rx="22.5" ry="19.6875" fill="#1A182C"/>
<ellipse cx="34.5" cy="23.6875" rx="22.5" ry="19.6875" fill="#1A182C"/>
<ellipse cx="22.5" cy="45.5625" rx="22.5" ry="19.6875" fill="#1A182C"/>
<path d="M107.696 40.072C106.128 40.072 104.976 39.904 104.24 39.568C103.52 39.232 103.04 38.672 102.8 37.888C102.56 37.104 102.44 35.896 102.44 34.264C102.44 32.424 102.52 30.736 102.68 29.2C102.856 27.664 103.088 26.048 103.376 24.352C103.44 23.968 103.632 23.664 103.952 23.44C104.288 23.2 104.712 23.08 105.224 23.08C105.768 23.08 106.176 23.216 106.448 23.488C106.736 23.744 106.88 24.096 106.88 24.544C106.88 24.64 106.864 24.784 106.832 24.976C106.496 26.944 106.24 28.624 106.064 30.016C105.888 31.392 105.8 32.84 105.8 34.36C105.8 35.144 105.832 35.72 105.896 36.088C105.976 36.456 106.12 36.712 106.328 36.856C106.552 37 106.896 37.072 107.36 37.072C108.352 37.072 110.064 36.848 112.496 36.4C112.576 36.384 112.688 36.376 112.832 36.376C113.248 36.376 113.576 36.536 113.816 36.856C114.072 37.16 114.2 37.52 114.2 37.936C114.2 38.784 113.584 39.32 112.352 39.544C111.248 39.752 110.408 39.896 109.832 39.976C109.272 40.04 108.56 40.072 107.696 40.072ZM126.106 36.808C127.13 36.824 127.642 37.344 127.642 38.368C127.642 39.424 127.122 39.952 126.082 39.952L118.882 39.856C118.354 39.84 117.978 39.68 117.754 39.376C117.546 39.072 117.442 38.712 117.442 38.296C117.442 37.768 117.578 37.376 117.85 37.12C118.138 36.848 118.482 36.712 118.882 36.712L120.874 36.736C121.082 33.2 121.194 29.656 121.21 26.104C120.522 26.152 119.946 26.2 119.482 26.248L118.69 26.296C118.242 26.296 117.898 26.16 117.658 25.888C117.434 25.616 117.322 25.232 117.322 24.736C117.322 24.224 117.434 23.848 117.658 23.608C117.898 23.368 118.242 23.216 118.69 23.152C119.042 23.104 119.666 23.056 120.562 23.008C121.458 22.96 122.354 22.936 123.25 22.936C124.114 22.936 125.122 22.984 126.274 23.08C126.722 23.112 127.058 23.272 127.282 23.56C127.522 23.832 127.642 24.192 127.642 24.64C127.642 25.648 127.138 26.152 126.13 26.152C125.89 26.152 125.41 26.128 124.69 26.08C124.658 30.432 124.538 34 124.33 36.784L126.106 36.808ZM138.46 26.2C137.804 26.2 137.292 26.208 136.924 26.224C136.988 27.632 137.028 28.888 137.044 29.992C137.268 29.976 137.62 29.968 138.1 29.968C139.012 29.968 139.764 29.984 140.356 30.016C140.964 30.048 141.5 30.12 141.964 30.232C142.412 30.344 142.74 30.52 142.948 30.76C143.156 31 143.26 31.328 143.26 31.744C143.26 32.208 143.132 32.584 142.876 32.872C142.636 33.16 142.26 33.28 141.748 33.232C140.468 33.104 139.284 33.04 138.196 33.04C137.668 33.04 137.284 33.048 137.044 33.064C137.028 34.552 136.972 36.096 136.876 37.696L136.828 38.536C136.796 38.968 136.628 39.32 136.324 39.592C136.036 39.848 135.62 39.976 135.076 39.976C134.516 39.976 134.076 39.84 133.756 39.568C133.436 39.296 133.292 38.944 133.324 38.512C133.468 36.72 133.548 34.984 133.564 33.304L133.036 33.376C132.668 33.424 132.364 33.296 132.124 32.992C131.9 32.688 131.788 32.296 131.788 31.816C131.788 31.304 131.916 30.944 132.172 30.736C132.444 30.512 132.82 30.36 133.3 30.28L133.54 30.232C133.524 28.728 133.476 27.416 133.396 26.296H133.204C132.692 26.296 132.316 26.184 132.076 25.96C131.836 25.736 131.716 25.344 131.716 24.784C131.716 24.256 131.812 23.888 132.004 23.68C132.212 23.456 132.508 23.32 132.892 23.272L133.156 23.248C133.14 23.2 133.132 23.144 133.132 23.08C133.1 22.68 133.244 22.36 133.564 22.12C133.9 21.88 134.356 21.76 134.932 21.76C135.988 21.76 136.564 22.192 136.66 23.056V23.128H138.604C139.452 23.128 140.308 23.16 141.172 23.224C142.052 23.272 142.692 23.336 143.092 23.416C143.588 23.512 143.94 23.696 144.148 23.968C144.356 24.224 144.46 24.552 144.46 24.952C144.46 25.432 144.332 25.816 144.076 26.104C143.82 26.392 143.468 26.512 143.02 26.464C141.34 26.288 139.82 26.2 138.46 26.2ZM158.779 23.392C159.259 23.44 159.635 23.584 159.907 23.824C160.179 24.048 160.315 24.432 160.315 24.976C160.315 25.536 160.155 25.944 159.835 26.2C159.531 26.456 159.091 26.568 158.515 26.536C157.363 26.456 156.419 26.416 155.683 26.416C155.555 28.224 155.467 30.032 155.419 31.84C155.371 33.632 155.347 35.904 155.347 38.656C155.347 39.248 155.227 39.664 154.987 39.904C154.763 40.128 154.323 40.24 153.667 40.24C152.979 40.24 152.483 40.12 152.179 39.88C151.875 39.64 151.723 39.24 151.723 38.68C151.723 36.344 151.779 34.064 151.891 31.84L152.179 26.44C151.475 26.472 150.907 26.504 150.475 26.536L149.419 26.608C149.355 26.624 149.259 26.632 149.131 26.632C148.667 26.632 148.291 26.48 148.003 26.176C147.715 25.872 147.571 25.472 147.571 24.976C147.571 24.512 147.691 24.168 147.931 23.944C148.187 23.72 148.539 23.576 148.987 23.512C149.563 23.432 150.371 23.368 151.411 23.32C152.451 23.272 153.411 23.248 154.291 23.248C155.011 23.248 155.827 23.264 156.739 23.296C157.667 23.312 158.347 23.344 158.779 23.392Z" fill="white"/>
<path d="M35.64 31.96C35.64 32.776 35.656 33.872 35.688 35.248C35.72 36.624 35.736 37.696 35.736 38.464C35.736 39.008 35.584 39.432 35.28 39.736C34.976 40.024 34.552 40.168 34.008 40.168C33.464 40.168 33.032 40.024 32.712 39.736C32.392 39.448 32.232 39.064 32.232 38.584V32.104C32.232 30.536 32.184 29.32 32.088 28.456C31.992 27.576 31.872 27.136 31.728 27.136C31.6 27.136 31.408 27.472 31.152 28.144C30.896 28.816 30.672 29.48 30.48 30.136C30.208 31.032 29.928 32.072 29.64 33.256C29.528 33.688 29.312 34.008 28.992 34.216C28.672 34.424 28.248 34.528 27.72 34.528C26.648 34.528 26 34.136 25.776 33.352L25.488 32.32C25.264 31.504 25.032 30.744 24.792 30.04C24.6 29.48 24.36 28.856 24.072 28.168C23.784 27.48 23.6 27.136 23.52 27.136C23.424 27.136 23.352 27.584 23.304 28.48C23.256 29.36 23.216 30.536 23.184 32.008C23.168 32.584 23.16 33.352 23.16 34.312L23.184 38.632C23.184 39.064 23.024 39.416 22.704 39.688C22.384 39.944 21.944 40.072 21.384 40.072C20.84 40.072 20.416 39.928 20.112 39.64C19.824 39.352 19.68 38.856 19.68 38.152L19.704 35.128C19.736 33.784 19.752 32.72 19.752 31.936C19.752 29.76 19.864 28.016 20.088 26.704C20.312 25.376 20.664 24.408 21.144 23.8C21.624 23.192 22.256 22.888 23.04 22.888C23.984 22.888 24.76 23.264 25.368 24.016C25.992 24.768 26.456 25.616 26.76 26.56C27.08 27.504 27.384 28.624 27.672 29.92C27.976 28.672 28.304 27.568 28.656 26.608C29.008 25.632 29.496 24.768 30.12 24.016C30.76 23.264 31.536 22.888 32.448 22.888C33.28 22.888 33.928 23.24 34.392 23.944C34.856 24.632 35.176 25.632 35.352 26.944C35.544 28.24 35.64 29.912 35.64 31.96ZM48.4223 39.856C46.7423 39.856 45.2703 39.528 44.0063 38.872C42.7423 38.2 41.7663 37.256 41.0783 36.04C40.3903 34.808 40.0463 33.36 40.0463 31.696C40.0463 30.016 40.3983 28.52 41.1023 27.208C41.8063 25.88 42.7823 24.848 44.0303 24.112C45.2943 23.36 46.7343 22.984 48.3503 22.984C50.0143 22.984 51.5103 23.376 52.8383 24.16C54.1823 24.928 55.2303 25.984 55.9823 27.328C56.7503 28.672 57.1343 30.16 57.1343 31.792C57.1343 33.408 56.7583 34.824 56.0063 36.04C55.2703 37.256 54.2463 38.2 52.9343 38.872C51.6223 39.528 50.1183 39.856 48.4223 39.856ZM48.5663 36.736C49.5263 36.736 50.3903 36.544 51.1583 36.16C51.9263 35.776 52.5343 35.2 52.9823 34.432C53.4303 33.664 53.6543 32.736 53.6543 31.648C53.6543 30.576 53.4383 29.624 53.0063 28.792C52.5903 27.944 51.9903 27.288 51.2063 26.824C50.4223 26.344 49.5183 26.104 48.4943 26.104C47.4703 26.104 46.5823 26.344 45.8303 26.824C45.0943 27.288 44.5263 27.936 44.1263 28.768C43.7263 29.584 43.5263 30.52 43.5263 31.576C43.5263 33.24 43.9903 34.52 44.9183 35.416C45.8623 36.296 47.0783 36.736 48.5663 36.736ZM69.3388 39.856C67.6588 39.856 66.1868 39.528 64.9228 38.872C63.6588 38.2 62.6828 37.256 61.9948 36.04C61.3068 34.808 60.9628 33.36 60.9628 31.696C60.9628 30.016 61.3148 28.52 62.0188 27.208C62.7228 25.88 63.6988 24.848 64.9468 24.112C66.2108 23.36 67.6508 22.984 69.2668 22.984C70.9308 22.984 72.4268 23.376 73.7548 24.16C75.0988 24.928 76.1468 25.984 76.8988 27.328C77.6668 28.672 78.0508 30.16 78.0508 31.792C78.0508 33.408 77.6748 34.824 76.9228 36.04C76.1868 37.256 75.1628 38.2 73.8508 38.872C72.5388 39.528 71.0348 39.856 69.3388 39.856ZM69.4828 36.736C70.4428 36.736 71.3068 36.544 72.0748 36.16C72.8428 35.776 73.4508 35.2 73.8988 34.432C74.3468 33.664 74.5708 32.736 74.5708 31.648C74.5708 30.576 74.3548 29.624 73.9228 28.792C73.5068 27.944 72.9068 27.288 72.1228 26.824C71.3388 26.344 70.4348 26.104 69.4108 26.104C68.3868 26.104 67.4988 26.344 66.7468 26.824C66.0108 27.288 65.4428 27.936 65.0428 28.768C64.6428 29.584 64.4428 30.52 64.4428 31.576C64.4428 33.24 64.9068 34.52 65.8348 35.416C66.7788 36.296 67.9948 36.736 69.4828 36.736ZM86.7754 23.272C89.9914 23.592 92.4474 24.424 94.1434 25.768C95.8394 27.112 96.6874 28.96 96.6874 31.312C96.6874 33.024 96.2394 34.528 95.3434 35.824C94.4634 37.104 93.2074 38.104 91.5754 38.824C89.9594 39.528 88.0714 39.88 85.9114 39.88H84.3514C83.6474 39.88 83.1434 39.76 82.8394 39.52C82.5354 39.28 82.3834 38.872 82.3834 38.296C82.3834 37.8 82.4874 37.432 82.6954 37.192C82.9194 36.936 83.2634 36.808 83.7274 36.808H83.9674L83.6794 26.224H83.5354C83.1834 26.224 82.8954 26.104 82.6714 25.864C82.4634 25.608 82.3594 25.232 82.3594 24.736C82.3594 24.192 82.4794 23.792 82.7194 23.536C82.9754 23.264 83.2954 23.128 83.6794 23.128H83.9914C84.2634 22.856 84.7114 22.72 85.3354 22.72C86.0554 22.72 86.5354 22.904 86.7754 23.272ZM87.4474 36.736C88.5194 36.608 89.4874 36.312 90.3514 35.848C91.2314 35.368 91.9274 34.744 92.4394 33.976C92.9514 33.192 93.2074 32.304 93.2074 31.312C93.2074 29.808 92.6634 28.68 91.5754 27.928C90.4874 27.16 89.0154 26.656 87.1594 26.416L87.4474 36.736Z" fill="white"/>
</svg>
