<svg width="430" height="433" viewBox="0 0 430 433" fill="none" xmlns="http://www.w3.org/2000/svg">
<rect x="10" width="419.485" height="433" rx="54" fill="#EAF7FF"/>
<mask id="mask0_7_567" style="mask-type:alpha" maskUnits="userSpaceOnUse" x="34" y="25" width="371" height="383">
<rect x="34" y="25" width="371" height="383" rx="24" fill="white"/>
</mask>
<g mask="url(#mask0_7_567)">
<path d="M274.223 207.484C262.947 290.529 199.929 325.275 116.884 313.999C33.8384 302.724 -37.786 249.696 -26.5104 166.651C-15.2348 83.6059 61.2272 25.4252 144.272 36.7008C227.317 47.9764 285.498 124.438 274.223 207.484Z" fill="#96CDFF"/>
<path d="M170.627 289.052C96.3334 334.183 28.3021 307.915 -15.2087 236.288C-58.7195 164.661 -61.2332 74.7982 13.0607 29.6674C87.3546 -15.4633 182.854 6.01615 226.365 77.6432C269.876 149.27 244.921 243.921 170.627 289.052Z" fill="#96CDFF"/>
<path d="M242.516 290.291C163.21 338.466 90.5896 310.426 44.1436 233.967C-2.30245 157.508 -4.9857 61.5831 74.32 13.4078C153.626 -34.7675 255.568 -11.839 302.014 64.6201C348.46 141.079 321.822 242.115 242.516 290.291Z" fill="#96CDFF"/>
<mask id="mask1_7_567" style="mask-type:alpha" maskUnits="userSpaceOnUse" x="-46" y="6" width="294" height="306">
<path d="M170.627 289.052C96.3334 334.183 28.3021 307.915 -15.2087 236.288C-58.7195 164.661 -61.2332 74.7982 13.0607 29.6674C87.3546 -15.4633 182.854 6.01615 226.365 77.6432C269.876 149.27 244.921 243.921 170.627 289.052Z" fill="#42A3FF"/>
</mask>
<g mask="url(#mask1_7_567)">
<g style="mix-blend-mode:overlay">
<path fill-rule="evenodd" clip-rule="evenodd" d="M157.55 319.072C103.322 323.348 52.5297 287.335 13.9607 223.843C-23.8479 161.602 -39.4878 90.1137 -16.3409 38.2932C-69.7889 90.5829 -61.6277 175.636 -19.1375 245.583C23.9023 316.435 87.595 347.802 157.55 319.072Z" fill="#4D4D4D"/>
</g>
</g>
<path d="M215.396 84.1054C197.901 94.7326 181.882 88.5472 171.636 71.6807C161.39 54.8142 160.798 33.6536 178.293 23.0264C195.787 12.3991 218.275 17.4571 228.521 34.3236C238.766 51.1901 232.89 73.4781 215.396 84.1054Z" fill="#EEF7FF"/>
<path d="M225.079 112.448C226.209 108.916 229.135 107.858 232.54 108.948C235.946 110.037 238.541 112.86 237.411 116.393C236.282 119.925 232.605 121.905 229.2 120.816C225.794 119.727 223.949 115.981 225.079 112.448Z" fill="#EEF7FF"/>
</g>
<g filter="url(#filter0_d_7_567)">
<path d="M61.808 307.648C61.808 308.992 61.484 310.252 60.836 311.428C60.212 312.604 59.216 313.552 57.848 314.272C56.504 314.992 54.8 315.352 52.736 315.352H48.524V325H43.484V299.872H52.736C54.68 299.872 56.336 300.208 57.704 300.88C59.072 301.552 60.092 302.476 60.764 303.652C61.46 304.828 61.808 306.16 61.808 307.648ZM52.52 311.284C53.912 311.284 54.944 310.972 55.616 310.348C56.288 309.7 56.624 308.8 56.624 307.648C56.624 305.2 55.256 303.976 52.52 303.976H48.524V311.284H52.52ZM71.8663 308.152C72.5143 307.096 73.3543 306.268 74.3863 305.668C75.4423 305.068 76.6423 304.768 77.9863 304.768V310.06H76.6543C75.0703 310.06 73.8703 310.432 73.0543 311.176C72.2623 311.92 71.8663 313.216 71.8663 315.064V325H66.8263V305.056H71.8663V308.152ZM81.525 314.956C81.525 312.94 81.921 311.152 82.713 309.592C83.529 308.032 84.621 306.832 85.989 305.992C87.381 305.152 88.929 304.732 90.633 304.732C92.121 304.732 93.417 305.032 94.521 305.632C95.649 306.232 96.549 306.988 97.221 307.9V305.056H102.297V325H97.221V322.084C96.573 323.02 95.673 323.8 94.521 324.424C93.393 325.024 92.085 325.324 90.597 325.324C88.917 325.324 87.381 324.892 85.989 324.028C84.621 323.164 83.529 321.952 82.713 320.392C81.921 318.808 81.525 316.996 81.525 314.956ZM97.221 315.028C97.221 313.804 96.981 312.76 96.501 311.896C96.021 311.008 95.373 310.336 94.557 309.88C93.741 309.4 92.865 309.16 91.929 309.16C90.993 309.16 90.129 309.388 89.337 309.844C88.545 310.3 87.897 310.972 87.393 311.86C86.913 312.724 86.673 313.756 86.673 314.956C86.673 316.156 86.913 317.212 87.393 318.124C87.897 319.012 88.545 319.696 89.337 320.176C90.153 320.656 91.017 320.896 91.929 320.896C92.865 320.896 93.741 320.668 94.557 320.212C95.373 319.732 96.021 319.06 96.501 318.196C96.981 317.308 97.221 316.252 97.221 315.028ZM107.363 315.028C107.363 312.964 107.783 311.164 108.623 309.628C109.463 308.068 110.627 306.868 112.115 306.028C113.603 305.164 115.307 304.732 117.227 304.732C119.699 304.732 121.739 305.356 123.347 306.604C124.979 307.828 126.071 309.556 126.623 311.788H121.187C120.899 310.924 120.407 310.252 119.711 309.772C119.039 309.268 118.199 309.016 117.191 309.016C115.751 309.016 114.611 309.544 113.771 310.6C112.931 311.632 112.511 313.108 112.511 315.028C112.511 316.924 112.931 318.4 113.771 319.456C114.611 320.488 115.751 321.004 117.191 321.004C119.231 321.004 120.563 320.092 121.187 318.268H126.623C126.071 320.428 124.979 322.144 123.347 323.416C121.715 324.688 119.675 325.324 117.227 325.324C115.307 325.324 113.603 324.904 112.115 324.064C110.627 323.2 109.463 322 108.623 320.464C107.783 318.904 107.363 317.092 107.363 315.028ZM137.624 309.196V318.844C137.624 319.516 137.78 320.008 138.092 320.32C138.428 320.608 138.98 320.752 139.748 320.752H142.088V325H138.92C134.672 325 132.548 322.936 132.548 318.808V309.196H130.172V305.056H132.548V300.124H137.624V305.056H142.088V309.196H137.624ZM149.709 302.68C148.821 302.68 148.077 302.404 147.477 301.852C146.901 301.276 146.613 300.568 146.613 299.728C146.613 298.888 146.901 298.192 147.477 297.64C148.077 297.064 148.821 296.776 149.709 296.776C150.597 296.776 151.329 297.064 151.905 297.64C152.505 298.192 152.805 298.888 152.805 299.728C152.805 300.568 152.505 301.276 151.905 301.852C151.329 302.404 150.597 302.68 149.709 302.68ZM152.193 305.056V325H147.153V305.056H152.193ZM157.316 315.028C157.316 312.964 157.736 311.164 158.576 309.628C159.416 308.068 160.58 306.868 162.068 306.028C163.556 305.164 165.26 304.732 167.18 304.732C169.652 304.732 171.692 305.356 173.3 306.604C174.932 307.828 176.024 309.556 176.576 311.788H171.14C170.852 310.924 170.36 310.252 169.664 309.772C168.992 309.268 168.152 309.016 167.144 309.016C165.704 309.016 164.564 309.544 163.724 310.6C162.884 311.632 162.464 313.108 162.464 315.028C162.464 316.924 162.884 318.4 163.724 319.456C164.564 320.488 165.704 321.004 167.144 321.004C169.184 321.004 170.516 320.092 171.14 318.268H176.576C176.024 320.428 174.932 322.144 173.3 323.416C171.668 324.688 169.628 325.324 167.18 325.324C165.26 325.324 163.556 324.904 162.068 324.064C160.58 323.2 159.416 322 158.576 320.464C157.736 318.904 157.316 317.092 157.316 315.028ZM200.249 314.596C200.249 315.316 200.201 315.964 200.105 316.54H185.525C185.645 317.98 186.149 319.108 187.037 319.924C187.925 320.74 189.017 321.148 190.313 321.148C192.185 321.148 193.517 320.344 194.309 318.736H199.745C199.169 320.656 198.065 322.24 196.433 323.488C194.801 324.712 192.797 325.324 190.421 325.324C188.501 325.324 186.773 324.904 185.237 324.064C183.725 323.2 182.537 321.988 181.673 320.428C180.833 318.868 180.413 317.068 180.413 315.028C180.413 312.964 180.833 311.152 181.673 309.592C182.513 308.032 183.689 306.832 185.201 305.992C186.713 305.152 188.453 304.732 190.421 304.732C192.317 304.732 194.009 305.14 195.497 305.956C197.009 306.772 198.173 307.936 198.989 309.448C199.829 310.936 200.249 312.652 200.249 314.596ZM195.029 313.156C195.005 311.86 194.537 310.828 193.625 310.06C192.713 309.268 191.597 308.872 190.277 308.872C189.029 308.872 187.973 309.256 187.109 310.024C186.269 310.768 185.753 311.812 185.561 313.156H195.029ZM70.88 353.872V379H65.84V362.656L59.108 379H55.292L48.524 362.656V379H43.484V353.872H49.208L57.2 372.556L65.192 353.872H70.88ZM79.8589 356.68C78.9709 356.68 78.2269 356.404 77.6269 355.852C77.0509 355.276 76.7629 354.568 76.7629 353.728C76.7629 352.888 77.0509 352.192 77.6269 351.64C78.2269 351.064 78.9709 350.776 79.8589 350.776C80.7469 350.776 81.4789 351.064 82.0549 351.64C82.6549 352.192 82.9549 352.888 82.9549 353.728C82.9549 354.568 82.6549 355.276 82.0549 355.852C81.4789 356.404 80.7469 356.68 79.8589 356.68ZM82.3429 359.056V379H77.3029V359.056H82.3429ZM99.8144 358.768C102.19 358.768 104.11 359.524 105.574 361.036C107.038 362.524 107.77 364.612 107.77 367.3V379H102.73V367.984C102.73 366.4 102.334 365.188 101.542 364.348C100.75 363.484 99.6704 363.052 98.3024 363.052C96.9104 363.052 95.8064 363.484 94.9904 364.348C94.1984 365.188 93.8024 366.4 93.8024 367.984V379H88.7624V359.056H93.8024V361.54C94.4744 360.676 95.3264 360.004 96.3584 359.524C97.4144 359.02 98.5664 358.768 99.8144 358.768ZM112.707 368.956C112.707 366.94 113.103 365.152 113.895 363.592C114.711 362.032 115.815 360.832 117.207 359.992C118.599 359.152 120.147 358.732 121.851 358.732C123.147 358.732 124.383 359.02 125.559 359.596C126.735 360.148 127.671 360.892 128.367 361.828V352.36H133.479V379H128.367V376.048C127.743 377.032 126.867 377.824 125.739 378.424C124.611 379.024 123.303 379.324 121.815 379.324C120.135 379.324 118.599 378.892 117.207 378.028C115.815 377.164 114.711 375.952 113.895 374.392C113.103 372.808 112.707 370.996 112.707 368.956ZM128.403 369.028C128.403 367.804 128.163 366.76 127.683 365.896C127.203 365.008 126.555 364.336 125.739 363.88C124.923 363.4 124.047 363.16 123.111 363.16C122.175 363.16 121.311 363.388 120.519 363.844C119.727 364.3 119.079 364.972 118.575 365.86C118.095 366.724 117.855 367.756 117.855 368.956C117.855 370.156 118.095 371.212 118.575 372.124C119.079 373.012 119.727 373.696 120.519 374.176C121.335 374.656 122.199 374.896 123.111 374.896C124.047 374.896 124.923 374.668 125.739 374.212C126.555 373.732 127.203 373.06 127.683 372.196C128.163 371.308 128.403 370.252 128.403 369.028ZM148.986 363.196H145.494V379H140.382V363.196H138.114V359.056H140.382V358.048C140.382 355.6 141.078 353.8 142.47 352.648C143.862 351.496 145.962 350.956 148.77 351.028V355.276C147.546 355.252 146.694 355.456 146.214 355.888C145.734 356.32 145.494 357.1 145.494 358.228V359.056H148.986V363.196ZM172.52 359.056V379H167.444V376.48C166.796 377.344 165.944 378.028 164.888 378.532C163.856 379.012 162.728 379.252 161.504 379.252C159.944 379.252 158.564 378.928 157.364 378.28C156.164 377.608 155.216 376.636 154.52 375.364C153.848 374.068 153.512 372.532 153.512 370.756V359.056H158.552V370.036C158.552 371.62 158.948 372.844 159.74 373.708C160.532 374.548 161.612 374.968 162.98 374.968C164.372 374.968 165.464 374.548 166.256 373.708C167.048 372.844 167.444 371.62 167.444 370.036V359.056H172.52ZM183.973 352.36V379H178.933V352.36H183.973ZM201.444 358.768C203.82 358.768 205.74 359.524 207.204 361.036C208.668 362.524 209.4 364.612 209.4 367.3V379H204.36V367.984C204.36 366.4 203.964 365.188 203.172 364.348C202.38 363.484 201.3 363.052 199.932 363.052C198.54 363.052 197.436 363.484 196.62 364.348C195.828 365.188 195.432 366.4 195.432 367.984V379H190.392V359.056H195.432V361.54C196.104 360.676 196.956 360.004 197.988 359.524C199.044 359.02 200.196 358.768 201.444 358.768ZM234.173 368.596C234.173 369.316 234.125 369.964 234.029 370.54H219.449C219.569 371.98 220.073 373.108 220.961 373.924C221.849 374.74 222.941 375.148 224.237 375.148C226.109 375.148 227.441 374.344 228.233 372.736H233.669C233.093 374.656 231.989 376.24 230.357 377.488C228.725 378.712 226.721 379.324 224.345 379.324C222.425 379.324 220.697 378.904 219.161 378.064C217.649 377.2 216.461 375.988 215.597 374.428C214.757 372.868 214.337 371.068 214.337 369.028C214.337 366.964 214.757 365.152 215.597 363.592C216.437 362.032 217.613 360.832 219.125 359.992C220.637 359.152 222.377 358.732 224.345 358.732C226.241 358.732 227.933 359.14 229.421 359.956C230.933 360.772 232.097 361.936 232.913 363.448C233.753 364.936 234.173 366.652 234.173 368.596ZM228.953 367.156C228.929 365.86 228.461 364.828 227.549 364.06C226.637 363.268 225.521 362.872 224.201 362.872C222.953 362.872 221.897 363.256 221.033 364.024C220.193 364.768 219.677 365.812 219.485 367.156H228.953ZM246.924 379.324C245.292 379.324 243.828 379.036 242.532 378.46C241.236 377.86 240.204 377.056 239.436 376.048C238.692 375.04 238.284 373.924 238.212 372.7H243.288C243.384 373.468 243.756 374.104 244.404 374.608C245.076 375.112 245.904 375.364 246.888 375.364C247.848 375.364 248.592 375.172 249.12 374.788C249.672 374.404 249.948 373.912 249.948 373.312C249.948 372.664 249.612 372.184 248.94 371.872C248.292 371.536 247.248 371.176 245.808 370.792C244.32 370.432 243.096 370.06 242.136 369.676C241.2 369.292 240.384 368.704 239.688 367.912C239.016 367.12 238.68 366.052 238.68 364.708C238.68 363.604 238.992 362.596 239.616 361.684C240.264 360.772 241.176 360.052 242.352 359.524C243.552 358.996 244.956 358.732 246.564 358.732C248.94 358.732 250.836 359.332 252.252 360.532C253.668 361.708 254.448 363.304 254.592 365.32H249.768C249.696 364.528 249.36 363.904 248.76 363.448C248.184 362.968 247.404 362.728 246.42 362.728C245.508 362.728 244.8 362.896 244.296 363.232C243.816 363.568 243.576 364.036 243.576 364.636C243.576 365.308 243.912 365.824 244.584 366.184C245.256 366.52 246.3 366.868 247.716 367.228C249.156 367.588 250.344 367.96 251.28 368.344C252.216 368.728 253.02 369.328 253.692 370.144C254.388 370.936 254.748 371.992 254.772 373.312C254.772 374.464 254.448 375.496 253.8 376.408C253.176 377.32 252.264 378.04 251.064 378.568C249.888 379.072 248.508 379.324 246.924 379.324ZM267.981 379.324C266.349 379.324 264.885 379.036 263.589 378.46C262.293 377.86 261.261 377.056 260.493 376.048C259.749 375.04 259.341 373.924 259.269 372.7H264.345C264.441 373.468 264.813 374.104 265.461 374.608C266.133 375.112 266.961 375.364 267.945 375.364C268.905 375.364 269.649 375.172 270.177 374.788C270.729 374.404 271.005 373.912 271.005 373.312C271.005 372.664 270.669 372.184 269.997 371.872C269.349 371.536 268.305 371.176 266.865 370.792C265.377 370.432 264.153 370.06 263.193 369.676C262.257 369.292 261.441 368.704 260.745 367.912C260.073 367.12 259.737 366.052 259.737 364.708C259.737 363.604 260.049 362.596 260.673 361.684C261.321 360.772 262.233 360.052 263.409 359.524C264.609 358.996 266.013 358.732 267.621 358.732C269.997 358.732 271.893 359.332 273.309 360.532C274.725 361.708 275.505 363.304 275.649 365.32H270.825C270.753 364.528 270.417 363.904 269.817 363.448C269.241 362.968 268.461 362.728 267.477 362.728C266.565 362.728 265.857 362.896 265.353 363.232C264.873 363.568 264.633 364.036 264.633 364.636C264.633 365.308 264.969 365.824 265.641 366.184C266.313 366.52 267.357 366.868 268.773 367.228C270.213 367.588 271.401 367.96 272.337 368.344C273.273 368.728 274.077 369.328 274.749 370.144C275.445 370.936 275.805 371.992 275.829 373.312C275.829 374.464 275.505 375.496 274.857 376.408C274.233 377.32 273.321 378.04 272.121 378.568C270.945 379.072 269.565 379.324 267.981 379.324Z" fill="black"/>
</g>
<defs>
<filter id="filter0_d_7_567" x="0.18401" y="257.476" width="318.945" height="169.148" filterUnits="userSpaceOnUse" color-interpolation-filters="sRGB">
<feFlood flood-opacity="0" result="BackgroundImageFix"/>
<feColorMatrix in="SourceAlpha" type="matrix" values="0 0 0 0 0 0 0 0 0 0 0 0 0 0 0 0 0 0 127 0" result="hardAlpha"/>
<feOffset dy="4"/>
<feGaussianBlur stdDeviation="21.65"/>
<feComposite in2="hardAlpha" operator="out"/>
<feColorMatrix type="matrix" values="0 0 0 0 0 0 0 0 0 0 0 0 0 0 0 0 0 0 0.25 0"/>
<feBlend mode="normal" in2="BackgroundImageFix" result="effect1_dropShadow_7_567"/>
<feBlend mode="normal" in="SourceGraphic" in2="effect1_dropShadow_7_567" result="shape"/>
</filter>
</defs>
</svg>
