<svg width="723" height="433" viewBox="0 0 723 433" fill="none" xmlns="http://www.w3.org/2000/svg">
<rect width="723" height="433" rx="54" fill="#FBFFEE"/>
<mask id="mask0_6_147" style="mask-type:alpha" maskUnits="userSpaceOnUse" x="19" y="30" width="684" height="373">
<rect x="19" y="30" width="684" height="373" fill="white"/>
</mask>
<g mask="url(#mask0_6_147)">
<line x1="20.5" y1="162.5" x2="721.5" y2="162.5" stroke="black" stroke-opacity="0.08" stroke-width="3" stroke-linecap="round"/>
<line x1="20.5" y1="124.5" x2="721.5" y2="124.5" stroke="black" stroke-opacity="0.08" stroke-width="3" stroke-linecap="round"/>
<line x1="20.5" y1="85.5" x2="721.5" y2="85.5" stroke="black" stroke-opacity="0.08" stroke-width="3" stroke-linecap="round"/>
<line x1="20.5" y1="85.5" x2="721.5" y2="85.5" stroke="black" stroke-opacity="0.08" stroke-width="3" stroke-linecap="round"/>
<line x1="20.5" y1="47.5" x2="721.5" y2="47.5" stroke="black" stroke-opacity="0.08" stroke-width="3" stroke-linecap="round"/>
<line x1="20.5" y1="281.5" x2="721.5" y2="281.5" stroke="black" stroke-opacity="0.08" stroke-width="3" stroke-linecap="round"/>
<line x1="20.5" y1="243.5" x2="721.5" y2="243.5" stroke="black" stroke-opacity="0.08" stroke-width="3" stroke-linecap="round"/>
<line x1="20.5" y1="204.5" x2="721.5" y2="204.5" stroke="black" stroke-opacity="0.08" stroke-width="3" stroke-linecap="round"/>
<path d="M21 7L21 281" stroke="black" stroke-width="4" stroke-linecap="round"/>
<path d="M8 252.246C8 252.246 70.0356 172.185 125.166 165.122C183.55 157.642 204.851 241.02 262.857 252.246C327.57 264.77 364.901 77.8788 429.587 90.6239C482.291 101.008 510.465 176.562 563.773 179.011C635.018 182.284 664 90.6239 711 90.6239" stroke="#1A182C" stroke-width="14" stroke-linecap="round"/>
<g filter="url(#filter0_d_6_147)">
<path d="M63.056 334.872L53.84 360H47.72L38.504 334.872H43.904L50.816 354.852L57.692 334.872H63.056ZM70.0738 337.68C69.1858 337.68 68.4418 337.404 67.8418 336.852C67.2658 336.276 66.9778 335.568 66.9778 334.728C66.9778 333.888 67.2658 333.192 67.8418 332.64C68.4418 332.064 69.1858 331.776 70.0738 331.776C70.9618 331.776 71.6938 332.064 72.2698 332.64C72.8698 333.192 73.1698 333.888 73.1698 334.728C73.1698 335.568 72.8698 336.276 72.2698 336.852C71.6938 337.404 70.9618 337.68 70.0738 337.68ZM72.5578 340.056V360H67.5178V340.056H72.5578ZM86.6093 360.324C84.9773 360.324 83.5133 360.036 82.2173 359.46C80.9213 358.86 79.8893 358.056 79.1213 357.048C78.3773 356.04 77.9693 354.924 77.8973 353.7H82.9733C83.0693 354.468 83.4413 355.104 84.0893 355.608C84.7613 356.112 85.5893 356.364 86.5733 356.364C87.5333 356.364 88.2773 356.172 88.8053 355.788C89.3573 355.404 89.6333 354.912 89.6333 354.312C89.6333 353.664 89.2973 353.184 88.6253 352.872C87.9773 352.536 86.9333 352.176 85.4933 351.792C84.0053 351.432 82.7813 351.06 81.8213 350.676C80.8853 350.292 80.0693 349.704 79.3733 348.912C78.7013 348.12 78.3653 347.052 78.3653 345.708C78.3653 344.604 78.6773 343.596 79.3013 342.684C79.9493 341.772 80.8613 341.052 82.0373 340.524C83.2373 339.996 84.6413 339.732 86.2493 339.732C88.6253 339.732 90.5213 340.332 91.9373 341.532C93.3533 342.708 94.1333 344.304 94.2773 346.32H89.4533C89.3813 345.528 89.0453 344.904 88.4453 344.448C87.8693 343.968 87.0893 343.728 86.1053 343.728C85.1933 343.728 84.4853 343.896 83.9813 344.232C83.5013 344.568 83.2613 345.036 83.2613 345.636C83.2613 346.308 83.5973 346.824 84.2693 347.184C84.9413 347.52 85.9853 347.868 87.4013 348.228C88.8413 348.588 90.0293 348.96 90.9653 349.344C91.9013 349.728 92.7053 350.328 93.3773 351.144C94.0733 351.936 94.4333 352.992 94.4573 354.312C94.4573 355.464 94.1333 356.496 93.4853 357.408C92.8613 358.32 91.9493 359.04 90.7493 359.568C89.5733 360.072 88.1933 360.324 86.6093 360.324ZM118.862 340.056V360H113.786V357.48C113.138 358.344 112.286 359.028 111.23 359.532C110.198 360.012 109.07 360.252 107.846 360.252C106.286 360.252 104.906 359.928 103.706 359.28C102.506 358.608 101.558 357.636 100.862 356.364C100.19 355.068 99.8545 353.532 99.8545 351.756V340.056H104.894V351.036C104.894 352.62 105.29 353.844 106.082 354.708C106.874 355.548 107.954 355.968 109.322 355.968C110.714 355.968 111.806 355.548 112.598 354.708C113.39 353.844 113.786 352.62 113.786 351.036V340.056H118.862ZM123.979 349.956C123.979 347.94 124.375 346.152 125.167 344.592C125.983 343.032 127.075 341.832 128.443 340.992C129.835 340.152 131.383 339.732 133.087 339.732C134.575 339.732 135.871 340.032 136.975 340.632C138.103 341.232 139.003 341.988 139.675 342.9V340.056H144.751V360H139.675V357.084C139.027 358.02 138.127 358.8 136.975 359.424C135.847 360.024 134.539 360.324 133.051 360.324C131.371 360.324 129.835 359.892 128.443 359.028C127.075 358.164 125.983 356.952 125.167 355.392C124.375 353.808 123.979 351.996 123.979 349.956ZM139.675 350.028C139.675 348.804 139.435 347.76 138.955 346.896C138.475 346.008 137.827 345.336 137.011 344.88C136.195 344.4 135.319 344.16 134.383 344.16C133.447 344.16 132.583 344.388 131.791 344.844C130.999 345.3 130.351 345.972 129.847 346.86C129.367 347.724 129.127 348.756 129.127 349.956C129.127 351.156 129.367 352.212 129.847 353.124C130.351 354.012 130.999 354.696 131.791 355.176C132.607 355.656 133.471 355.896 134.383 355.896C135.319 355.896 136.195 355.668 137.011 355.212C137.827 354.732 138.475 354.06 138.955 353.196C139.435 352.308 139.675 351.252 139.675 350.028ZM156.154 333.36V360H151.114V333.36H156.154ZM165.129 337.68C164.241 337.68 163.497 337.404 162.897 336.852C162.321 336.276 162.033 335.568 162.033 334.728C162.033 333.888 162.321 333.192 162.897 332.64C163.497 332.064 164.241 331.776 165.129 331.776C166.017 331.776 166.749 332.064 167.325 332.64C167.925 333.192 168.225 333.888 168.225 334.728C168.225 335.568 167.925 336.276 167.325 336.852C166.749 337.404 166.017 337.68 165.129 337.68ZM167.613 340.056V360H162.573V340.056H167.613ZM178.641 355.86H187.533V360H172.917V355.932L181.629 344.196H172.953V340.056H187.425V344.124L178.641 355.86ZM211.415 349.596C211.415 350.316 211.367 350.964 211.271 351.54H196.691C196.811 352.98 197.315 354.108 198.203 354.924C199.091 355.74 200.183 356.148 201.479 356.148C203.351 356.148 204.683 355.344 205.475 353.736H210.911C210.335 355.656 209.231 357.24 207.599 358.488C205.967 359.712 203.963 360.324 201.587 360.324C199.667 360.324 197.939 359.904 196.403 359.064C194.891 358.2 193.703 356.988 192.839 355.428C191.999 353.868 191.579 352.068 191.579 350.028C191.579 347.964 191.999 346.152 192.839 344.592C193.679 343.032 194.855 341.832 196.367 340.992C197.879 340.152 199.619 339.732 201.587 339.732C203.483 339.732 205.175 340.14 206.663 340.956C208.175 341.772 209.339 342.936 210.155 344.448C210.995 345.936 211.415 347.652 211.415 349.596ZM206.195 348.156C206.171 346.86 205.703 345.828 204.791 345.06C203.879 344.268 202.763 343.872 201.443 343.872C200.195 343.872 199.139 344.256 198.275 345.024C197.435 345.768 196.919 346.812 196.727 348.156H206.195ZM245.632 340.056L233.284 369.432H227.92L232.24 359.496L224.248 340.056H229.9L235.048 353.988L240.268 340.056H245.632ZM258.645 360.324C256.725 360.324 254.997 359.904 253.461 359.064C251.925 358.2 250.713 356.988 249.825 355.428C248.961 353.868 248.529 352.068 248.529 350.028C248.529 347.988 248.973 346.188 249.861 344.628C250.773 343.068 252.009 341.868 253.569 341.028C255.129 340.164 256.869 339.732 258.789 339.732C260.709 339.732 262.449 340.164 264.009 341.028C265.569 341.868 266.793 343.068 267.681 344.628C268.593 346.188 269.049 347.988 269.049 350.028C269.049 352.068 268.581 353.868 267.645 355.428C266.733 356.988 265.485 358.2 263.901 359.064C262.341 359.904 260.589 360.324 258.645 360.324ZM258.645 355.932C259.557 355.932 260.409 355.716 261.201 355.284C262.017 354.828 262.665 354.156 263.145 353.268C263.625 352.38 263.865 351.3 263.865 350.028C263.865 348.132 263.361 346.68 262.353 345.672C261.369 344.64 260.157 344.124 258.717 344.124C257.277 344.124 256.065 344.64 255.081 345.672C254.121 346.68 253.641 348.132 253.641 350.028C253.641 351.924 254.109 353.388 255.045 354.42C256.005 355.428 257.205 355.932 258.645 355.932ZM293.014 340.056V360H287.938V357.48C287.29 358.344 286.438 359.028 285.382 359.532C284.35 360.012 283.222 360.252 281.998 360.252C280.438 360.252 279.058 359.928 277.858 359.28C276.658 358.608 275.71 357.636 275.014 356.364C274.342 355.068 274.006 353.532 274.006 351.756V340.056H279.046V351.036C279.046 352.62 279.442 353.844 280.234 354.708C281.026 355.548 282.106 355.968 283.474 355.968C284.866 355.968 285.958 355.548 286.75 354.708C287.542 353.844 287.938 352.62 287.938 351.036V340.056H293.014ZM304.467 343.152C305.115 342.096 305.955 341.268 306.987 340.668C308.043 340.068 309.243 339.768 310.587 339.768V345.06H309.255C307.671 345.06 306.471 345.432 305.655 346.176C304.863 346.92 304.467 348.216 304.467 350.064V360H299.427V340.056H304.467V343.152ZM330.479 342.936C331.127 342.024 332.015 341.268 333.143 340.668C334.295 340.044 335.603 339.732 337.067 339.732C338.771 339.732 340.307 340.152 341.675 340.992C343.067 341.832 344.159 343.032 344.951 344.592C345.767 346.128 346.175 347.916 346.175 349.956C346.175 351.996 345.767 353.808 344.951 355.392C344.159 356.952 343.067 358.164 341.675 359.028C340.307 359.892 338.771 360.324 337.067 360.324C335.603 360.324 334.307 360.024 333.179 359.424C332.075 358.824 331.175 358.068 330.479 357.156V369.504H325.439V340.056H330.479V342.936ZM341.027 349.956C341.027 348.756 340.775 347.724 340.271 346.86C339.791 345.972 339.143 345.3 338.327 344.844C337.535 344.388 336.671 344.16 335.735 344.16C334.823 344.16 333.959 344.4 333.143 344.88C332.351 345.336 331.703 346.008 331.199 346.896C330.719 347.784 330.479 348.828 330.479 350.028C330.479 351.228 330.719 352.272 331.199 353.16C331.703 354.048 332.351 354.732 333.143 355.212C333.959 355.668 334.823 355.896 335.735 355.896C336.671 355.896 337.535 355.656 338.327 355.176C339.143 354.696 339.791 354.012 340.271 353.124C340.775 352.236 341.027 351.18 341.027 349.956ZM356.318 343.152C356.966 342.096 357.806 341.268 358.838 340.668C359.894 340.068 361.094 339.768 362.438 339.768V345.06H361.106C359.522 345.06 358.322 345.432 357.506 346.176C356.714 346.92 356.318 348.216 356.318 350.064V360H351.278V340.056H356.318V343.152ZM376.129 360.324C374.209 360.324 372.481 359.904 370.945 359.064C369.409 358.2 368.197 356.988 367.309 355.428C366.445 353.868 366.013 352.068 366.013 350.028C366.013 347.988 366.457 346.188 367.345 344.628C368.257 343.068 369.493 341.868 371.053 341.028C372.613 340.164 374.353 339.732 376.273 339.732C378.193 339.732 379.933 340.164 381.493 341.028C383.053 341.868 384.277 343.068 385.165 344.628C386.077 346.188 386.533 347.988 386.533 350.028C386.533 352.068 386.065 353.868 385.129 355.428C384.217 356.988 382.969 358.2 381.385 359.064C379.825 359.904 378.073 360.324 376.129 360.324ZM376.129 355.932C377.041 355.932 377.893 355.716 378.685 355.284C379.501 354.828 380.149 354.156 380.629 353.268C381.109 352.38 381.349 351.3 381.349 350.028C381.349 348.132 380.845 346.68 379.837 345.672C378.853 344.64 377.641 344.124 376.201 344.124C374.761 344.124 373.549 344.64 372.565 345.672C371.605 346.68 371.125 348.132 371.125 350.028C371.125 351.924 371.593 353.388 372.529 354.42C373.489 355.428 374.689 355.932 376.129 355.932ZM399.482 339.732C400.97 339.732 402.278 340.032 403.406 340.632C404.534 341.208 405.422 341.964 406.07 342.9V340.056H411.146V360.144C411.146 361.992 410.774 363.636 410.03 365.076C409.286 366.54 408.17 367.692 406.682 368.532C405.194 369.396 403.394 369.828 401.282 369.828C398.45 369.828 396.122 369.168 394.298 367.848C392.498 366.528 391.478 364.728 391.238 362.448H396.242C396.506 363.36 397.07 364.08 397.934 364.608C398.822 365.16 399.89 365.436 401.138 365.436C402.602 365.436 403.79 364.992 404.702 364.104C405.614 363.24 406.07 361.92 406.07 360.144V357.048C405.422 357.984 404.522 358.764 403.37 359.388C402.242 360.012 400.946 360.324 399.482 360.324C397.802 360.324 396.266 359.892 394.874 359.028C393.482 358.164 392.378 356.952 391.562 355.392C390.77 353.808 390.374 351.996 390.374 349.956C390.374 347.94 390.77 346.152 391.562 344.592C392.378 343.032 393.47 341.832 394.838 340.992C396.23 340.152 397.778 339.732 399.482 339.732ZM406.07 350.028C406.07 348.804 405.83 347.76 405.35 346.896C404.87 346.008 404.222 345.336 403.406 344.88C402.59 344.4 401.714 344.16 400.778 344.16C399.842 344.16 398.978 344.388 398.186 344.844C397.394 345.3 396.746 345.972 396.242 346.86C395.762 347.724 395.522 348.756 395.522 349.956C395.522 351.156 395.762 352.212 396.242 353.124C396.746 354.012 397.394 354.696 398.186 355.176C399.002 355.656 399.866 355.896 400.778 355.896C401.714 355.896 402.59 355.668 403.406 355.212C404.222 354.732 404.87 354.06 405.35 353.196C405.83 352.308 406.07 351.252 406.07 350.028ZM422.548 343.152C423.196 342.096 424.036 341.268 425.068 340.668C426.124 340.068 427.324 339.768 428.668 339.768V345.06H427.336C425.752 345.06 424.552 345.432 423.736 346.176C422.944 346.92 422.548 348.216 422.548 350.064V360H417.508V340.056H422.548V343.152ZM452.043 349.596C452.043 350.316 451.995 350.964 451.899 351.54H437.319C437.439 352.98 437.943 354.108 438.831 354.924C439.719 355.74 440.811 356.148 442.107 356.148C443.979 356.148 445.311 355.344 446.103 353.736H451.539C450.963 355.656 449.859 357.24 448.227 358.488C446.595 359.712 444.591 360.324 442.215 360.324C440.295 360.324 438.567 359.904 437.031 359.064C435.519 358.2 434.331 356.988 433.467 355.428C432.627 353.868 432.207 352.068 432.207 350.028C432.207 347.964 432.627 346.152 433.467 344.592C434.307 343.032 435.483 341.832 436.995 340.992C438.507 340.152 440.247 339.732 442.215 339.732C444.111 339.732 445.803 340.14 447.291 340.956C448.803 341.772 449.967 342.936 450.783 344.448C451.623 345.936 452.043 347.652 452.043 349.596ZM446.823 348.156C446.799 346.86 446.331 345.828 445.419 345.06C444.507 344.268 443.391 343.872 442.071 343.872C440.823 343.872 439.767 344.256 438.903 345.024C438.063 345.768 437.547 346.812 437.355 348.156H446.823ZM464.793 360.324C463.161 360.324 461.697 360.036 460.401 359.46C459.105 358.86 458.073 358.056 457.305 357.048C456.561 356.04 456.153 354.924 456.081 353.7H461.157C461.253 354.468 461.625 355.104 462.273 355.608C462.945 356.112 463.773 356.364 464.757 356.364C465.717 356.364 466.461 356.172 466.989 355.788C467.541 355.404 467.817 354.912 467.817 354.312C467.817 353.664 467.481 353.184 466.809 352.872C466.161 352.536 465.117 352.176 463.677 351.792C462.189 351.432 460.965 351.06 460.005 350.676C459.069 350.292 458.253 349.704 457.557 348.912C456.885 348.12 456.549 347.052 456.549 345.708C456.549 344.604 456.861 343.596 457.485 342.684C458.133 341.772 459.045 341.052 460.221 340.524C461.421 339.996 462.825 339.732 464.433 339.732C466.809 339.732 468.705 340.332 470.121 341.532C471.537 342.708 472.317 344.304 472.461 346.32H467.637C467.565 345.528 467.229 344.904 466.629 344.448C466.053 343.968 465.273 343.728 464.289 343.728C463.377 343.728 462.669 343.896 462.165 344.232C461.685 344.568 461.445 345.036 461.445 345.636C461.445 346.308 461.781 346.824 462.453 347.184C463.125 347.52 464.169 347.868 465.585 348.228C467.025 348.588 468.213 348.96 469.149 349.344C470.085 349.728 470.889 350.328 471.561 351.144C472.257 351.936 472.617 352.992 472.641 354.312C472.641 355.464 472.317 356.496 471.669 357.408C471.045 358.32 470.133 359.04 468.933 359.568C467.757 360.072 466.377 360.324 464.793 360.324ZM485.851 360.324C484.219 360.324 482.755 360.036 481.459 359.46C480.163 358.86 479.131 358.056 478.363 357.048C477.619 356.04 477.211 354.924 477.139 353.7H482.215C482.311 354.468 482.683 355.104 483.331 355.608C484.003 356.112 484.831 356.364 485.815 356.364C486.775 356.364 487.519 356.172 488.047 355.788C488.599 355.404 488.875 354.912 488.875 354.312C488.875 353.664 488.539 353.184 487.867 352.872C487.219 352.536 486.175 352.176 484.735 351.792C483.247 351.432 482.023 351.06 481.063 350.676C480.127 350.292 479.311 349.704 478.615 348.912C477.943 348.12 477.607 347.052 477.607 345.708C477.607 344.604 477.919 343.596 478.543 342.684C479.191 341.772 480.103 341.052 481.279 340.524C482.479 339.996 483.883 339.732 485.491 339.732C487.867 339.732 489.763 340.332 491.179 341.532C492.595 342.708 493.375 344.304 493.519 346.32H488.695C488.623 345.528 488.287 344.904 487.687 344.448C487.111 343.968 486.331 343.728 485.347 343.728C484.435 343.728 483.727 343.896 483.223 344.232C482.743 344.568 482.503 345.036 482.503 345.636C482.503 346.308 482.839 346.824 483.511 347.184C484.183 347.52 485.227 347.868 486.643 348.228C488.083 348.588 489.271 348.96 490.207 349.344C491.143 349.728 491.947 350.328 492.619 351.144C493.315 351.936 493.675 352.992 493.699 354.312C493.699 355.464 493.375 356.496 492.727 357.408C492.103 358.32 491.191 359.04 489.991 359.568C488.815 360.072 487.435 360.324 485.851 360.324Z" fill="black"/>
</g>
</g>
<defs>
<filter id="filter0_d_6_147" x="16.204" y="313.476" width="499.795" height="82.652" filterUnits="userSpaceOnUse" color-interpolation-filters="sRGB">
<feFlood flood-opacity="0" result="BackgroundImageFix"/>
<feColorMatrix in="SourceAlpha" type="matrix" values="0 0 0 0 0 0 0 0 0 0 0 0 0 0 0 0 0 0 127 0" result="hardAlpha"/>
<feOffset dy="4"/>
<feGaussianBlur stdDeviation="11.15"/>
<feComposite in2="hardAlpha" operator="out"/>
<feColorMatrix type="matrix" values="0 0 0 0 0 0 0 0 0 0 0 0 0 0 0 0 0 0 0.25 0"/>
<feBlend mode="normal" in2="BackgroundImageFix" result="effect1_dropShadow_6_147"/>
<feBlend mode="normal" in="SourceGraphic" in2="effect1_dropShadow_6_147" result="shape"/>
</filter>
</defs>
</svg>
