<svg width="335" height="362" viewBox="0 0 335 362" fill="none" xmlns="http://www.w3.org/2000/svg">
<rect width="335" height="362" rx="54" fill="white"/>
<mask id="mask0_6_317" style="mask-type:alpha" maskUnits="userSpaceOnUse" x="22" y="24" width="291" height="314">
<rect x="22" y="24" width="291" height="314" rx="24" fill="white"/>
</mask>
<g mask="url(#mask0_6_317)">
<g filter="url(#filter0_d_6_317)">
<circle cx="84.5" cy="75.5" r="115.5" fill="#96CDFF"/>
</g>
<g filter="url(#filter1_d_6_317)">
<circle cx="221" cy="165" r="28" fill="#96CDFF"/>
</g>
<circle cx="37" cy="75" r="8" fill="white" fill-opacity="0.5"/>
<circle cx="79" cy="75" r="8" fill="white" fill-opacity="0.5"/>
<circle cx="121" cy="74" r="8" fill="white" fill-opacity="0.5"/>
</g>
<g filter="url(#filter2_d_6_317)">
<path d="M47.444 255L41.9 245.208H39.524V255H34.484V229.872H43.916C45.86 229.872 47.516 230.22 48.884 230.916C50.252 231.588 51.272 232.512 51.944 233.688C52.64 234.84 52.988 236.136 52.988 237.576C52.988 239.232 52.508 240.732 51.548 242.076C50.588 243.396 49.16 244.308 47.264 244.812L53.276 255H47.444ZM39.524 241.428H43.736C45.104 241.428 46.124 241.104 46.796 240.456C47.468 239.784 47.804 238.86 47.804 237.684C47.804 236.532 47.468 235.644 46.796 235.02C46.124 234.372 45.104 234.048 43.736 234.048H39.524V241.428ZM77.5265 244.596C77.5265 245.316 77.4785 245.964 77.3825 246.54H62.8025C62.9225 247.98 63.4265 249.108 64.3145 249.924C65.2025 250.74 66.2945 251.148 67.5905 251.148C69.4625 251.148 70.7945 250.344 71.5865 248.736H77.0225C76.4465 250.656 75.3425 252.24 73.7105 253.488C72.0785 254.712 70.0745 255.324 67.6985 255.324C65.7785 255.324 64.0505 254.904 62.5145 254.064C61.0025 253.2 59.8145 251.988 58.9505 250.428C58.1105 248.868 57.6905 247.068 57.6905 245.028C57.6905 242.964 58.1105 241.152 58.9505 239.592C59.7905 238.032 60.9665 236.832 62.4785 235.992C63.9905 235.152 65.7305 234.732 67.6985 234.732C69.5945 234.732 71.2865 235.14 72.7745 235.956C74.2865 236.772 75.4505 237.936 76.2665 239.448C77.1065 240.936 77.5265 242.652 77.5265 244.596ZM72.3065 243.156C72.2825 241.86 71.8145 240.828 70.9025 240.06C69.9905 239.268 68.8745 238.872 67.5545 238.872C66.3065 238.872 65.2505 239.256 64.3865 240.024C63.5465 240.768 63.0305 241.812 62.8385 243.156H72.3065ZM81.3493 245.028C81.3493 242.964 81.7693 241.164 82.6093 239.628C83.4493 238.068 84.6133 236.868 86.1013 236.028C87.5893 235.164 89.2933 234.732 91.2133 234.732C93.6853 234.732 95.7253 235.356 97.3333 236.604C98.9653 237.828 100.057 239.556 100.609 241.788H95.1733C94.8853 240.924 94.3933 240.252 93.6973 239.772C93.0253 239.268 92.1853 239.016 91.1773 239.016C89.7373 239.016 88.5973 239.544 87.7573 240.6C86.9173 241.632 86.4973 243.108 86.4973 245.028C86.4973 246.924 86.9173 248.4 87.7573 249.456C88.5973 250.488 89.7373 251.004 91.1773 251.004C93.2173 251.004 94.5493 250.092 95.1733 248.268H100.609C100.057 250.428 98.9653 252.144 97.3333 253.416C95.7013 254.688 93.6613 255.324 91.2133 255.324C89.2933 255.324 87.5893 254.904 86.1013 254.064C84.6133 253.2 83.4493 252 82.6093 250.464C81.7693 248.904 81.3493 247.092 81.3493 245.028ZM114.598 255.324C112.678 255.324 110.95 254.904 109.413 254.064C107.877 253.2 106.665 251.988 105.777 250.428C104.913 248.868 104.481 247.068 104.481 245.028C104.481 242.988 104.925 241.188 105.813 239.628C106.725 238.068 107.961 236.868 109.522 236.028C111.081 235.164 112.821 234.732 114.741 234.732C116.662 234.732 118.402 235.164 119.962 236.028C121.522 236.868 122.746 238.068 123.634 239.628C124.546 241.188 125.002 242.988 125.002 245.028C125.002 247.068 124.534 248.868 123.597 250.428C122.685 251.988 121.438 253.2 119.854 254.064C118.294 254.904 116.542 255.324 114.598 255.324ZM114.598 250.932C115.51 250.932 116.362 250.716 117.153 250.284C117.97 249.828 118.618 249.156 119.098 248.268C119.578 247.38 119.817 246.3 119.817 245.028C119.817 243.132 119.314 241.68 118.306 240.672C117.321 239.64 116.109 239.124 114.669 239.124C113.229 239.124 112.017 239.64 111.033 240.672C110.074 241.68 109.594 243.132 109.594 245.028C109.594 246.924 110.062 248.388 110.997 249.42C111.958 250.428 113.158 250.932 114.598 250.932ZM135.179 238.152C135.827 237.096 136.667 236.268 137.699 235.668C138.755 235.068 139.955 234.768 141.299 234.768V240.06H139.967C138.383 240.06 137.183 240.432 136.367 241.176C135.575 241.92 135.179 243.216 135.179 245.064V255H130.139V235.056H135.179V238.152ZM144.837 244.956C144.837 242.94 145.233 241.152 146.025 239.592C146.841 238.032 147.945 236.832 149.337 235.992C150.729 235.152 152.277 234.732 153.981 234.732C155.277 234.732 156.513 235.02 157.689 235.596C158.865 236.148 159.801 236.892 160.497 237.828V228.36H165.609V255H160.497V252.048C159.873 253.032 158.997 253.824 157.869 254.424C156.741 255.024 155.433 255.324 153.945 255.324C152.265 255.324 150.729 254.892 149.337 254.028C147.945 253.164 146.841 251.952 146.025 250.392C145.233 248.808 144.837 246.996 144.837 244.956ZM160.533 245.028C160.533 243.804 160.293 242.76 159.813 241.896C159.333 241.008 158.685 240.336 157.869 239.88C157.053 239.4 156.177 239.16 155.241 239.16C154.305 239.16 153.441 239.388 152.649 239.844C151.857 240.3 151.209 240.972 150.705 241.86C150.225 242.724 149.985 243.756 149.985 244.956C149.985 246.156 150.225 247.212 150.705 248.124C151.209 249.012 151.857 249.696 152.649 250.176C153.465 250.656 154.329 250.896 155.241 250.896C156.177 250.896 157.053 250.668 157.869 250.212C158.685 249.732 159.333 249.06 159.813 248.196C160.293 247.308 160.533 246.252 160.533 245.028ZM53.024 298.596C53.024 299.316 52.976 299.964 52.88 300.54H38.3C38.42 301.98 38.924 303.108 39.812 303.924C40.7 304.74 41.792 305.148 43.088 305.148C44.96 305.148 46.292 304.344 47.084 302.736H52.52C51.944 304.656 50.84 306.24 49.208 307.488C47.576 308.712 45.572 309.324 43.196 309.324C41.276 309.324 39.548 308.904 38.012 308.064C36.5 307.2 35.312 305.988 34.448 304.428C33.608 302.868 33.188 301.068 33.188 299.028C33.188 296.964 33.608 295.152 34.448 293.592C35.288 292.032 36.464 290.832 37.976 289.992C39.488 289.152 41.228 288.732 43.196 288.732C45.092 288.732 46.784 289.14 48.272 289.956C49.784 290.772 50.948 291.936 51.764 293.448C52.604 294.936 53.024 296.652 53.024 298.596ZM47.804 297.156C47.78 295.86 47.312 294.828 46.4 294.06C45.488 293.268 44.372 292.872 43.052 292.872C41.804 292.872 40.748 293.256 39.884 294.024C39.044 294.768 38.528 295.812 38.336 297.156H47.804ZM66.4588 304.356L71.4988 289.056H76.8628L69.4828 309H63.3628L56.0188 289.056H61.4188L66.4588 304.356ZM99.6735 298.596C99.6735 299.316 99.6255 299.964 99.5295 300.54H84.9495C85.0695 301.98 85.5735 303.108 86.4615 303.924C87.3495 304.74 88.4415 305.148 89.7375 305.148C91.6095 305.148 92.9415 304.344 93.7335 302.736H99.1695C98.5935 304.656 97.4895 306.24 95.8575 307.488C94.2255 308.712 92.2215 309.324 89.8455 309.324C87.9255 309.324 86.1975 308.904 84.6615 308.064C83.1495 307.2 81.9615 305.988 81.0975 304.428C80.2575 302.868 79.8375 301.068 79.8375 299.028C79.8375 296.964 80.2575 295.152 81.0975 293.592C81.9375 292.032 83.1135 290.832 84.6255 289.992C86.1375 289.152 87.8775 288.732 89.8455 288.732C91.7415 288.732 93.4335 289.14 94.9215 289.956C96.4335 290.772 97.5975 291.936 98.4135 293.448C99.2535 294.936 99.6735 296.652 99.6735 298.596ZM94.4535 297.156C94.4295 295.86 93.9615 294.828 93.0495 294.06C92.1375 293.268 91.0215 292.872 89.7015 292.872C88.4535 292.872 87.3975 293.256 86.5335 294.024C85.6935 294.768 85.1775 295.812 84.9855 297.156H94.4535ZM109.832 292.152C110.48 291.096 111.32 290.268 112.352 289.668C113.408 289.068 114.608 288.768 115.952 288.768V294.06H114.62C113.036 294.06 111.836 294.432 111.02 295.176C110.228 295.92 109.832 297.216 109.832 299.064V309H104.792V289.056H109.832V292.152ZM139.867 289.056L127.519 318.432H122.155L126.475 308.496L118.483 289.056H124.135L129.283 302.988L134.503 289.056H139.867ZM142.728 298.956C142.728 296.94 143.124 295.152 143.916 293.592C144.732 292.032 145.836 290.832 147.228 289.992C148.62 289.152 150.168 288.732 151.872 288.732C153.168 288.732 154.404 289.02 155.58 289.596C156.756 290.148 157.692 290.892 158.388 291.828V282.36H163.5V309H158.388V306.048C157.764 307.032 156.888 307.824 155.76 308.424C154.632 309.024 153.324 309.324 151.836 309.324C150.156 309.324 148.62 308.892 147.228 308.028C145.836 307.164 144.732 305.952 143.916 304.392C143.124 302.808 142.728 300.996 142.728 298.956ZM158.424 299.028C158.424 297.804 158.184 296.76 157.704 295.896C157.224 295.008 156.576 294.336 155.76 293.88C154.944 293.4 154.068 293.16 153.132 293.16C152.196 293.16 151.332 293.388 150.54 293.844C149.748 294.3 149.1 294.972 148.596 295.86C148.116 296.724 147.876 297.756 147.876 298.956C147.876 300.156 148.116 301.212 148.596 302.124C149.1 303.012 149.748 303.696 150.54 304.176C151.356 304.656 152.22 304.896 153.132 304.896C154.068 304.896 154.944 304.668 155.76 304.212C156.576 303.732 157.224 303.06 157.704 302.196C158.184 301.308 158.424 300.252 158.424 299.028ZM168.566 298.956C168.566 296.94 168.962 295.152 169.754 293.592C170.57 292.032 171.662 290.832 173.03 289.992C174.422 289.152 175.97 288.732 177.674 288.732C179.162 288.732 180.458 289.032 181.562 289.632C182.69 290.232 183.59 290.988 184.262 291.9V289.056H189.338V309H184.262V306.084C183.614 307.02 182.714 307.8 181.562 308.424C180.434 309.024 179.126 309.324 177.638 309.324C175.958 309.324 174.422 308.892 173.03 308.028C171.662 307.164 170.57 305.952 169.754 304.392C168.962 302.808 168.566 300.996 168.566 298.956ZM184.262 299.028C184.262 297.804 184.022 296.76 183.542 295.896C183.062 295.008 182.414 294.336 181.598 293.88C180.782 293.4 179.906 293.16 178.97 293.16C178.034 293.16 177.17 293.388 176.378 293.844C175.586 294.3 174.938 294.972 174.434 295.86C173.954 296.724 173.714 297.756 173.714 298.956C173.714 300.156 173.954 301.212 174.434 302.124C174.938 303.012 175.586 303.696 176.378 304.176C177.194 304.656 178.058 304.896 178.97 304.896C179.906 304.896 180.782 304.668 181.598 304.212C182.414 303.732 183.062 303.06 183.542 302.196C184.022 301.308 184.262 300.252 184.262 299.028ZM214.781 289.056L202.433 318.432H197.069L201.389 308.496L193.397 289.056H199.049L204.197 302.988L209.417 289.056H214.781Z" fill="black"/>
</g>
<defs>
<filter id="filter0_d_6_317" x="-50.6" y="-55.6" width="270.2" height="270.2" filterUnits="userSpaceOnUse" color-interpolation-filters="sRGB">
<feFlood flood-opacity="0" result="BackgroundImageFix"/>
<feColorMatrix in="SourceAlpha" type="matrix" values="0 0 0 0 0 0 0 0 0 0 0 0 0 0 0 0 0 0 127 0" result="hardAlpha"/>
<feOffset dy="4"/>
<feGaussianBlur stdDeviation="9.8"/>
<feComposite in2="hardAlpha" operator="out"/>
<feColorMatrix type="matrix" values="0 0 0 0 0 0 0 0 0 0 0 0 0 0 0 0 0 0 0.25 0"/>
<feBlend mode="normal" in2="BackgroundImageFix" result="effect1_dropShadow_6_317"/>
<feBlend mode="normal" in="SourceGraphic" in2="effect1_dropShadow_6_317" result="shape"/>
</filter>
<filter id="filter1_d_6_317" x="173.4" y="121.4" width="95.2" height="95.2" filterUnits="userSpaceOnUse" color-interpolation-filters="sRGB">
<feFlood flood-opacity="0" result="BackgroundImageFix"/>
<feColorMatrix in="SourceAlpha" type="matrix" values="0 0 0 0 0 0 0 0 0 0 0 0 0 0 0 0 0 0 127 0" result="hardAlpha"/>
<feOffset dy="4"/>
<feGaussianBlur stdDeviation="9.8"/>
<feComposite in2="hardAlpha" operator="out"/>
<feColorMatrix type="matrix" values="0 0 0 0 0 0 0 0 0 0 0 0 0 0 0 0 0 0 0.25 0"/>
<feBlend mode="normal" in2="BackgroundImageFix" result="effect1_dropShadow_6_317"/>
<feBlend mode="normal" in="SourceGraphic" in2="effect1_dropShadow_6_317" result="shape"/>
</filter>
<filter id="filter2_d_6_317" x="7.08799" y="206.26" width="233.793" height="142.272" filterUnits="userSpaceOnUse" color-interpolation-filters="sRGB">
<feFlood flood-opacity="0" result="BackgroundImageFix"/>
<feColorMatrix in="SourceAlpha" type="matrix" values="0 0 0 0 0 0 0 0 0 0 0 0 0 0 0 0 0 0 127 0" result="hardAlpha"/>
<feOffset dy="4"/>
<feGaussianBlur stdDeviation="13.05"/>
<feComposite in2="hardAlpha" operator="out"/>
<feColorMatrix type="matrix" values="0 0 0 0 0 0 0 0 0 0 0 0 0 0 0 0 0 0 0.25 0"/>
<feBlend mode="normal" in2="BackgroundImageFix" result="effect1_dropShadow_6_317"/>
<feBlend mode="normal" in="SourceGraphic" in2="effect1_dropShadow_6_317" result="shape"/>
</filter>
</defs>
</svg>
